<svg width="100" height="100" viewBox="0 0 100 100" fill="none" xmlns="http://www.w3.org/2000/svg">
<path d="M91.803 100H8.19715C7.67884 99.9995 7.18194 99.8085 6.81544 99.469C6.44894 99.1296 6.24278 98.6693 6.24219 98.1892V45.3093C6.24278 44.8293 6.44894 44.369 6.81544 44.0295C7.18194 43.69 7.67884 43.4991 8.19715 43.4985H91.803C92.3213 43.4991 92.8182 43.69 93.1847 44.0295C93.5512 44.369 93.7574 44.8293 93.758 45.3093V98.1892C93.7574 98.6693 93.5512 99.1296 93.1847 99.469C92.8182 99.8085 92.3213 99.9995 91.803 100Z" fill="white"/>
<path d="M91.803 100H8.19715C7.67884 99.9995 7.18194 99.8085 6.81544 99.469C6.44894 99.1296 6.24278 98.6693 6.24219 98.1892V45.3093C6.24278 44.8293 6.44894 44.369 6.81544 44.0295C7.18194 43.69 7.67884 43.4991 8.19715 43.4985H91.803C92.3213 43.4991 92.8182 43.69 93.1847 44.0295C93.5512 44.369 93.7574 44.8293 93.758 45.3093V98.1892C93.7574 98.6693 93.5512 99.1296 93.1847 99.469C92.8182 99.8085 92.3213 99.9995 91.803 100ZM8.19715 43.9009C7.79402 43.9014 7.40753 44.0499 7.12248 44.3139C6.83742 44.5779 6.67708 44.9359 6.67662 45.3093V98.1892C6.67708 98.5626 6.83742 98.9206 7.12248 99.1846C7.40753 99.4487 7.79402 99.5972 8.19715 99.5976H91.803C92.2061 99.5972 92.5926 99.4487 92.8777 99.1846C93.1627 98.9206 93.3231 98.5626 93.3235 98.1892V45.3093C93.3231 44.9359 93.1627 44.5779 92.8777 44.3139C92.5926 44.0499 92.2061 43.9014 91.803 43.9009H8.19715Z" fill="#3F3D56"/>
<path d="M59.6782 99.6818H40.3223V70.0008C40.3231 69.2968 40.6254 68.6219 41.1628 68.1242C41.7002 67.6264 42.4288 67.3464 43.1888 67.3456H56.8116C57.5716 67.3464 58.3003 67.6264 58.8377 68.1241C59.3751 68.6219 59.6774 69.2968 59.6782 70.0008V99.6818Z" fill="#34A836"/>
<path d="M87.2432 32.2266H76.1895V15.1157C76.19 14.6356 76.3962 14.1754 76.7627 13.8359C77.1292 13.4964 77.6261 13.3055 78.1444 13.3049H85.2883C85.8066 13.3055 86.3035 13.4964 86.67 13.8359C87.0365 14.1754 87.2426 14.6356 87.2432 15.1157V32.2266Z" fill="white"/>
<path d="M87.2432 32.2266H76.1895V15.1157C76.19 14.6356 76.3962 14.1754 76.7627 13.8359C77.1292 13.4964 77.6261 13.3055 78.1444 13.3049H85.2883C85.8066 13.3055 86.3035 13.4964 86.67 13.8359C87.0365 14.1754 87.2426 14.6356 87.2432 15.1157V32.2266ZM76.6239 31.8242H86.8088V15.1157C86.8083 14.7423 86.648 14.3843 86.3629 14.1203C86.0779 13.8563 85.6914 13.7078 85.2883 13.7073H78.1444C77.7413 13.7078 77.3548 13.8563 77.0697 14.1203C76.7847 14.3843 76.6243 14.7423 76.6239 15.1157V31.8242Z" fill="#3F3D56"/>
<path d="M24.9218 39.4319C36.6775 39.4319 46.2073 30.6048 46.2073 19.7159C46.2073 8.82713 36.6775 0 24.9218 0C13.1661 0 3.63623 8.82713 3.63623 19.7159C3.63623 30.6048 13.1661 39.4319 24.9218 39.4319Z" fill="#F2F2F2"/>
<path d="M32.1464 75.9674H15.7963C15.1441 75.9667 14.5189 75.7264 14.0577 75.2992C13.5965 74.8721 13.3371 74.2929 13.3364 73.6888V61.2035C13.3372 60.5994 13.5966 60.0203 14.0577 59.5931C14.5189 59.166 15.1441 58.9257 15.7963 58.925H32.1464C32.7986 58.9257 33.4238 59.166 33.885 59.5931C34.3461 60.0203 34.6055 60.5994 34.6063 61.2035V73.6888C34.6055 74.2929 34.3462 74.872 33.885 75.2992C33.4239 75.7264 32.7986 75.9667 32.1464 75.9674Z" fill="#34A836"/>
<path d="M84.582 75.9674H68.2319C67.5797 75.9667 66.9544 75.7264 66.4932 75.2992C66.0321 74.8721 65.7727 74.2929 65.772 73.6888V61.2035C65.7727 60.5994 66.0321 60.0203 66.4933 59.5931C66.9544 59.166 67.5797 58.9257 68.2319 58.925H84.582C85.2341 58.9257 85.8594 59.166 86.3205 59.5931C86.7817 60.0203 87.0411 60.5994 87.0419 61.2035V73.6888C87.0411 74.2929 86.7817 74.8721 86.3206 75.2992C85.8594 75.7264 85.2342 75.9667 84.582 75.9674Z" fill="#34A836"/>
<path d="M0 44.5861V36.4501C-4.62131e-07 35.8251 0.178357 35.2113 0.517 34.6707C0.855644 34.1301 1.34254 33.6821 1.92835 33.3719L50.732 7.53506C51.3378 7.21435 52.0267 7.05311 52.7243 7.06879C53.4218 7.08447 54.1015 7.27647 54.6898 7.62402L98.2306 33.3475C98.7729 33.6679 99.2194 34.1097 99.5286 34.6322C99.8379 35.1546 100 35.7409 100 36.3367V44.5861C100 45.5264 99.5967 46.4282 98.8789 47.0931C98.161 47.758 97.1874 48.1316 96.1722 48.1316H3.82775C2.81256 48.1316 1.83896 47.7581 1.12112 47.0931C0.403276 46.4282 5.76099e-07 45.5264 0 44.5861Z" fill="#2F2E41"/>
<path opacity="0.2" d="M96.1723 44.5094H3.82773C2.81255 44.5094 1.83895 44.1358 1.12112 43.4709C0.403282 42.806 4.60867e-06 41.9042 0 40.9639V44.1831C4.60867e-06 45.1234 0.403282 46.0252 1.12112 46.6901C1.83895 47.355 2.81255 47.7286 3.82773 47.7286H96.1723C97.1875 47.7286 98.161 47.355 98.8789 46.6901C99.5967 46.0252 100 45.1234 100 44.1831V40.9639C100 41.9042 99.5967 42.806 98.8789 43.4709C98.161 44.1358 97.1875 44.5094 96.1723 44.5094Z" fill="black"/>
</svg>
