<svg width="100" height="100" viewBox="0 0 100 100" fill="none" xmlns="http://www.w3.org/2000/svg">
<g clip-path="url(#clip0_2779_240)">
<path d="M58.6676 41.8237V43.8044L23.6268 50.4202L21.809 51.486H15.5371V50.3699L49.9651 42.3184L58.6676 41.8237Z" fill="#F1C0C0"/>
<path opacity="0.1" d="M58.6676 43.8328L23.6268 50.4242L21.809 51.486H15.5371L50.2206 44.3276L58.6676 43.8328Z" fill="black"/>
<path opacity="0.2" d="M58.6676 41.8237V43.7359L50.1199 44.2154L49.8613 42.3013L58.6676 41.8237Z" fill="black"/>
<path opacity="0.1" d="M90.4062 97.4146C90.4062 98.3574 88.4084 99.2408 84.9223 100H18.9835C16.0498 100.01 13.1667 98.7571 10.6274 96.3684L10.5884 96.3325C11.5902 95.7389 13.3987 95.1854 15.86 94.6857L15.9704 94.6637C17.0741 94.4442 18.3077 94.2358 19.656 94.0384C19.6899 94.0384 19.7247 94.0301 19.7587 94.0232C20.8285 93.8686 21.9665 93.7237 23.1726 93.5884C23.2109 93.5884 23.2482 93.5773 23.2864 93.5746C23.7517 93.5203 24.2266 93.4688 24.7111 93.42L24.8979 93.4007C28.4256 93.0445 32.4355 92.7602 36.7842 92.5725H36.7893C37.3984 92.5449 38.0139 92.5205 38.636 92.4993C39.3276 92.4726 40.0278 92.4492 40.7365 92.4289C41.2773 92.4096 41.8249 92.3958 42.3742 92.382H42.387C44.8653 92.3213 47.4259 92.2909 50.0443 92.2909C56.519 92.2909 62.6388 92.4828 68.0615 92.8278H68.0768C68.9105 92.8803 69.729 92.9383 70.5271 92.9976L71.2063 93.0501C72.1068 93.12 72.9842 93.195 73.8383 93.2751C83.8823 94.204 90.4062 95.7127 90.4062 97.4146Z" fill="#34A836"/>
<path d="M57.7577 91.6574C57.755 91.8063 57.7445 91.9545 57.7263 92.1005C57.1354 91.9477 56.5411 91.8097 55.9434 91.6864C55.9434 91.6477 55.9434 91.6077 55.9434 91.5677C55.9489 91.1538 56.0222 90.7497 56.1556 90.3971C56.3305 89.9472 56.5963 89.6656 56.8892 89.6808C57.1821 89.6959 57.4359 90.0038 57.593 90.4689C57.7118 90.8343 57.7687 91.2445 57.7577 91.6574Z" fill="#34A836"/>
<path d="M57.8062 89.2986C57.827 88.2311 57.4373 87.3449 56.9358 87.3191C56.4343 87.2933 56.011 88.1378 55.9902 89.2053C55.9695 90.2728 56.3592 91.1591 56.8606 91.1848C57.3621 91.2106 57.7855 90.3661 57.8062 89.2986Z" fill="#34A836"/>
<path d="M57.8526 86.9355C57.8733 85.868 57.4836 84.9817 56.9822 84.9559C56.4807 84.9302 56.0573 85.7747 56.0366 86.8422C56.0158 87.9097 56.4056 88.7959 56.907 88.8217C57.4085 88.8474 57.8319 88.0029 57.8526 86.9355Z" fill="#34A836"/>
<path d="M57.898 84.5723C57.9188 83.5048 57.5291 82.6186 57.0276 82.5928C56.5261 82.567 56.1028 83.4115 56.082 84.479C56.0613 85.5465 56.451 86.4328 56.9524 86.4585C57.4539 86.4843 57.8773 85.6398 57.898 84.5723Z" fill="#34A836"/>
<path d="M57.9439 82.2091C57.9647 81.1417 57.575 80.2554 57.0735 80.2296C56.572 80.2039 56.1487 81.0484 56.1279 82.1158C56.1072 83.1833 56.4969 84.0696 56.9983 84.0954C57.4998 84.1211 57.9232 83.2766 57.9439 82.2091Z" fill="#34A836"/>
<path opacity="0.7" d="M53.9455 65.8123C53.826 65.5491 53.7181 65.2723 53.6229 64.9841L56.0222 64.4692L53.4395 64.3684C53.209 63.4797 53.0925 62.5238 53.097 61.5592C53.1015 60.5947 53.227 59.6418 53.4658 58.7588L56.8721 61.8576L53.7519 57.8768C54.0667 57.0491 54.483 56.3359 54.975 55.7816C55.4669 55.2273 56.0239 54.8438 56.611 54.6552C57.1982 54.4665 57.803 54.4767 58.3877 54.6852C58.9723 54.8936 59.5243 55.2958 60.009 55.8666C60.4937 56.4374 60.9009 57.1645 61.205 58.0026C61.5091 58.8407 61.7037 59.7718 61.7765 60.7377C61.8494 61.7035 61.799 62.6834 61.6284 63.6161C61.4579 64.5489 61.1708 65.4144 60.7853 66.1587C60.9712 66.5681 61.1292 67.0092 61.2565 67.4742L58.1074 69.9311L61.4467 68.2982C61.657 69.4263 61.6908 70.6218 61.5453 71.7765C61.3997 72.9313 61.0792 74.0087 60.6129 74.9113C61.0977 75.9807 61.3876 77.2503 61.4495 78.575C61.5114 79.8996 61.3427 81.2258 60.9628 82.4019C60.5829 83.5781 60.007 84.5566 59.3011 85.2258C58.5952 85.8949 57.7877 86.2275 56.971 86.1857C56.1543 86.1438 55.3613 85.7291 54.6827 84.989C54.0041 84.2489 53.4673 83.2133 53.1338 82.0006C52.8002 80.7879 52.6832 79.4471 52.7963 78.1314C52.9094 76.8157 53.2479 75.5783 53.7732 74.5607C53.194 73.2827 52.8958 71.7253 52.9266 70.1387C52.9574 68.5521 53.3154 67.0283 53.943 65.8123H53.9455Z" fill="#2F2E41"/>
<path opacity="0.1" d="M61.6318 70.5854C61.602 72.173 61.243 73.6975 60.6129 74.9113C61.0977 75.9807 61.3876 77.2503 61.4495 78.575C61.5114 79.8996 61.3427 81.2258 60.9628 82.402C60.5829 83.5781 60.007 84.5567 59.3011 85.2258C58.5952 85.8949 57.7877 86.2275 56.971 86.1857C56.1543 86.1438 55.3613 85.7291 54.6827 84.989C54.0041 84.249 53.4673 83.2134 53.1338 82.0007C52.8002 80.7879 52.6832 79.4471 52.7963 78.1314C52.9094 76.8157 53.2479 75.5783 53.7732 74.5607C53.2154 73.3281 61.647 69.7917 61.6318 70.5854Z" fill="black"/>
<g opacity="0.7">
<path d="M44.8525 91.6574C44.8497 91.8063 44.8392 91.9545 44.821 92.1005C44.2301 91.9477 43.6358 91.8097 43.0381 91.6864C43.0381 91.6477 43.0381 91.6077 43.0381 91.5677C43.0436 91.1538 43.1169 90.7497 43.2503 90.3971C43.4252 89.9472 43.691 89.6656 43.9839 89.6808C44.2768 89.6959 44.5307 90.0038 44.6877 90.4689C44.8065 90.8343 44.8634 91.2445 44.8525 91.6574Z" fill="#2F2E41"/>
<path d="M44.9005 89.2992C44.9212 88.2317 44.5315 87.3455 44.03 87.3197C43.5285 87.294 43.1052 88.1384 43.0844 89.2059C43.0637 90.2734 43.4534 91.1597 43.9549 91.1854C44.4564 91.2112 44.8797 90.3667 44.9005 89.2992Z" fill="#2F2E41"/>
<path d="M44.9463 86.9361C44.9671 85.8686 44.5774 84.9823 44.0759 84.9566C43.5744 84.9308 43.1511 85.7753 43.1303 86.8428C43.1096 87.9103 43.4993 88.7965 44.0008 88.8223C44.5023 88.848 44.9256 88.0036 44.9463 86.9361Z" fill="#2F2E41"/>
<path d="M44.9922 84.5729C45.013 83.5054 44.6233 82.6192 44.1218 82.5934C43.6203 82.5676 43.197 83.4121 43.1762 84.4796C43.1555 85.5471 43.5452 86.4334 44.0467 86.4591C44.5482 86.4849 44.9715 85.6404 44.9922 84.5729Z" fill="#2F2E41"/>
<path d="M45.0377 82.2098C45.0584 81.1423 44.6687 80.256 44.1672 80.2302C43.6657 80.2045 43.2424 81.049 43.2217 82.1165C43.2009 83.1839 43.5906 84.0702 44.0921 84.096C44.5936 84.1217 45.0169 83.2772 45.0377 82.2098Z" fill="#2F2E41"/>
<path d="M41.0402 65.8123C40.9207 65.5491 40.8129 65.2723 40.7176 64.9841L43.117 64.4692L40.5342 64.3684C40.3037 63.4797 40.1872 62.5238 40.1917 61.5592C40.1963 60.5947 40.3218 59.6418 40.5605 58.7588L43.9668 61.8576L40.8467 57.8768C41.1614 57.0491 41.5778 56.3359 42.0697 55.7816C42.5616 55.2273 43.1186 54.8438 43.7058 54.6552C44.293 54.4665 44.8978 54.4767 45.4824 54.6852C46.067 54.8936 46.619 55.2958 47.1037 55.8666C47.5885 56.4374 47.9956 57.1645 48.2997 58.0026C48.6039 58.8407 48.7984 59.7718 48.8713 60.7377C48.9441 61.7035 48.8937 62.6834 48.7231 63.6161C48.5526 64.5489 48.2656 65.4144 47.88 66.1587C48.066 66.5681 48.224 67.0092 48.3512 67.4742L45.2022 69.9311L48.5414 68.2982C48.7517 69.4263 48.7856 70.6218 48.64 71.7765C48.4944 72.9313 48.174 74.0087 47.7077 74.9113C48.1925 75.9807 48.4824 77.2503 48.5442 78.575C48.6061 79.8996 48.4374 81.2258 48.0575 82.4019C47.6776 83.5781 47.1017 84.5566 46.3958 85.2258C45.6899 85.8949 44.8824 86.2275 44.0657 86.1857C43.249 86.1438 42.456 85.7291 41.7774 84.989C41.0989 84.2489 40.5621 83.2133 40.2285 82.0006C39.8949 80.7879 39.7779 79.4471 39.891 78.1314C40.0041 76.8157 40.3426 75.5783 40.8679 74.5607C40.2887 73.2827 39.9905 71.7253 40.0213 70.1387C40.0521 68.5521 40.4101 67.0283 41.0377 65.8123H41.0402Z" fill="#2F2E41"/>
<path opacity="0.1" d="M48.7265 70.5854C48.6968 72.173 48.3377 73.6975 47.7077 74.9113C48.1925 75.9807 48.4824 77.2503 48.5442 78.575C48.6061 79.8996 48.4374 81.2258 48.0575 82.402C47.6776 83.5781 47.1017 84.5567 46.3958 85.2258C45.6899 85.8949 44.8824 86.2275 44.0657 86.1857C43.249 86.1438 42.456 85.7291 41.7774 84.989C41.0989 84.249 40.5621 83.2134 40.2285 82.0007C39.8949 80.7879 39.7779 79.4471 39.891 78.1314C40.0041 76.8157 40.3426 75.5783 40.8679 74.5607C40.3101 73.3281 48.7418 69.7917 48.7265 70.5854Z" fill="black"/>
</g>
<path d="M80.1042 93.1674C80.0977 93.4494 80.077 93.7301 80.0422 94.0066C78.9045 93.7112 77.7586 93.4471 76.6045 93.2143C76.6045 93.1398 76.6045 93.0639 76.6045 92.9866C76.6153 92.1895 76.7565 91.4114 77.0137 90.7325C77.3533 89.8671 77.8628 89.3246 78.4257 89.3522C78.9886 89.3798 79.4784 89.9747 79.7841 90.8706C80.0146 91.5762 80.1251 92.3691 80.1042 93.1674Z" fill="#2F2E41"/>
<path d="M80.1963 88.6229C80.2362 86.5671 79.4856 84.8604 78.5196 84.8108C77.5537 84.7612 76.7383 86.3874 76.6983 88.4432C76.6584 90.4989 77.409 92.2056 78.3749 92.2553C79.3409 92.3049 80.1563 90.6786 80.1963 88.6229Z" fill="#2F2E41"/>
<path d="M80.2846 84.0733C80.3246 82.0176 79.574 80.3108 78.608 80.2612C77.6421 80.2116 76.8267 81.8379 76.7867 83.8936C76.7467 85.9493 77.4974 87.6561 78.4633 87.7057C79.4293 87.7553 80.2447 86.1291 80.2846 84.0733Z" fill="#2F2E41"/>
<path d="M80.374 79.5237C80.414 77.468 79.6633 75.7613 78.6974 75.7116C77.7315 75.662 76.916 77.2883 76.8761 79.344C76.8361 81.3998 77.5868 83.1065 78.5527 83.1561C79.5186 83.2058 80.334 81.5795 80.374 79.5237Z" fill="#2F2E41"/>
<path d="M80.3623 74.7671C80.4003 72.7104 79.6476 71.0048 78.6812 70.9577C77.7148 70.9106 76.9006 72.5397 76.8627 74.5965C76.8247 76.6532 77.5774 78.3588 78.5438 78.4059C79.5102 78.453 80.3244 76.8239 80.3623 74.7671Z" fill="#2F2E41"/>
<path opacity="0.7" d="M72.7643 43.4124C72.5352 42.9057 72.3278 42.3739 72.1436 41.8209L76.7623 40.8298L71.7913 40.6352C71.3472 38.9243 71.1226 37.084 71.1311 35.2271C71.1395 33.3702 71.3809 31.5356 71.8405 29.8356L78.3993 35.7999L72.3932 28.1364C73.0005 26.5468 73.8027 25.1776 74.7497 24.1141C75.6967 23.0506 76.7683 22.3157 77.8977 21.955C79.0271 21.5943 80.1901 21.6157 81.3142 22.0177C82.4383 22.4198 83.4994 23.194 84.4314 24.292C85.3634 25.39 86.1463 26.7883 86.7314 28.3998C87.3164 30.0112 87.691 31.8013 87.8318 33.6585C87.9727 35.5157 87.8767 37.4001 87.55 39.1943C87.2232 40.9886 86.6727 42.6542 85.9327 44.0874C86.2903 44.8761 86.5946 45.7253 86.8403 46.6202L80.7774 51.3534L87.2053 48.2062C87.6105 50.3753 87.6764 52.6744 87.3973 54.8954C87.1181 57.1163 86.5027 59.1891 85.6066 60.9259C86.5398 62.9846 87.0977 65.4287 87.2167 67.9787C87.3357 70.5287 87.0109 73.0817 86.2795 75.3457C85.548 77.6097 84.4395 79.4934 83.0806 80.7814C81.7216 82.0694 80.1672 82.7098 78.595 82.6292C77.0228 82.5486 75.4963 81.7503 74.19 80.3257C72.8836 78.9011 71.8503 76.9076 71.208 74.5732C70.5658 72.2387 70.3405 69.6576 70.5581 67.1248C70.7756 64.5921 71.4272 62.21 72.4382 60.2509C71.3238 57.7907 70.7501 54.7931 70.8092 51.7393C70.8684 48.6854 71.5569 45.7524 72.7643 43.411V43.4124Z" fill="#2F2E41"/>
<path opacity="0.1" d="M87.5628 52.5998C87.5071 55.6543 86.8191 58.5889 85.6101 60.9287C86.5432 62.9874 87.1011 65.4315 87.2201 67.9815C87.3391 70.5315 87.0143 73.0844 86.2829 75.3485C85.5514 77.6125 84.4429 79.4962 83.084 80.7842C81.7251 82.0722 80.1706 82.7125 78.5984 82.632C77.0262 82.5514 75.4997 81.7531 74.1934 80.3285C72.8871 78.9039 71.8537 76.9104 71.2114 74.576C70.5692 72.2415 70.344 69.6604 70.5615 67.1276C70.7791 64.5949 71.4306 62.2128 72.4417 60.2537C71.36 57.8782 87.5925 51.0718 87.5628 52.5998Z" fill="black"/>
<path opacity="0.1" d="M84.6707 38.9825L85.6865 40.4047L84.1324 40.4068L75.657 39.9958L74.584 38.4934L84.6707 38.9825Z" fill="black"/>
<path d="M84.6706 38.9824L85.7437 40.4848L75.6569 39.9957L30.9934 13.6801L30.1494 12.4984L35.7669 12.7708L84.6706 38.9824Z" fill="#F1C0C0"/>
<path opacity="0.1" d="M84.6706 38.9824L85.7437 40.4848L75.6569 39.9957L30.9934 13.6801L30.1494 12.4984L35.7669 12.7708L84.6706 38.9824Z" fill="black"/>
<path opacity="0.1" d="M84.6706 38.9824L85.7437 40.4848L75.6569 39.9957L30.9934 13.6801L30.1494 12.4984L74.7289 38.5004L84.6706 38.9824Z" fill="black"/>
<path d="M49.4289 20.1182L84.7046 38.932L85.7776 40.4344L75.6909 39.9453L46.8814 22.5858" fill="#F1C0C0"/>
<path opacity="0.1" d="M49.4289 20.1182L84.7046 38.932L85.7776 40.4344L75.6909 39.9453L46.8814 22.5858" fill="black"/>
<path d="M13.3994 93.4103L14.29 93.4062H15.5458L17.1334 51.4748L32.8565 8.81881L32.1731 7.62622V4.60608L15.1688 50.4865L13.3994 93.4103Z" fill="#F1C0C0"/>
<path opacity="0.1" d="M14.3853 93.4062H15.5459L17.1336 51.4748L32.8567 8.81882L32.1732 7.62622L15.9551 50.8357L14.3853 93.4062Z" fill="black"/>
<path d="M10.7749 93.7596L51.5154 98.8281L51.5502 98.8322L90.9782 94.89L91.0079 94.8873V92.1805L47.5632 90.8843L11.3174 90.8278H11.0525L11.0237 91.1314L10.7749 93.7596Z" fill="#F1C0C0"/>
<path opacity="0.1" d="M10.7749 93.7596L51.5154 98.8281L51.5502 98.8322L90.9782 94.89L91.0079 94.8376V92.2371H90.9731L51.5154 94.3793L11.3174 90.8278H11.3115L11.2402 90.9037L11.0237 91.1314L10.7749 93.7596Z" fill="black"/>
<path opacity="0.1" d="M10.7749 93.7596L51.5154 98.8281V94.3793L11.2402 90.9037L11.0237 91.1314L10.7749 93.7596Z" fill="black"/>
<path d="M32.168 7.56962L50.1291 38.9111L49.5739 94.0411L51.0996 94.3406L51.125 94.3462H52.6507L52.8333 41.2784L86.4657 59.5428L87.0329 92.0631L88.2606 92.2867L88.6766 92.3626L87.7138 57.2873L52.5556 37.2203L33.2776 4.63782H32.168V7.56962Z" fill="#F1C0C0"/>
<path opacity="0.1" d="M52.6948 40.2639L52.8332 41.2784L86.4657 59.5428L87.0328 92.0632L88.2605 92.2868L87.2977 58.8665L52.6948 40.2639Z" fill="black"/>
<path opacity="0.1" d="M32.168 7.56962L50.1291 38.9111L49.5739 94.0411L51.0996 94.3406L51.5156 37.1071L32.168 4.63782V7.56962Z" fill="black"/>
<path d="M52.7603 62.389L65.0958 66.3381L65.1 66.3395L86.7052 73.259L87.6943 72.6144L87.6909 72.5012L87.6264 70.2582L52.773 58.8085L52.7603 62.389Z" fill="#F1C0C0"/>
<path opacity="0.1" d="M65.1001 66.3395L86.7053 73.259L87.6944 72.6144L87.691 72.5012L65.1001 66.3395Z" fill="black"/>
<path d="M65.9263 48.3884L66.2599 78.2503L66.4323 93.5704L67.9512 93.4876L68.9072 93.4351L68.61 48.8205L67.9512 48.4643L67.8069 48.3884H65.9263Z" fill="#F1C0C0"/>
<path opacity="0.1" d="M65.9395 48.3816V48.3885L66.2595 78.2503L66.4319 93.5705L67.9508 93.4877V48.3816H65.9395Z" fill="black"/>
</g>
<defs>
<clipPath id="clip0_2779_240">
<rect width="100" height="100" fill="white"/>
</clipPath>
</defs>
</svg>
