<svg width="91" height="100" viewBox="0 0 91 100" fill="none" xmlns="http://www.w3.org/2000/svg">
<path d="M44.0621 0H5.67822V18.5962H44.0621V0Z" fill="#3F3D56"/>
<path d="M44.0621 0H5.67822V18.5962H44.0621V0Z" fill="#3F3D56"/>
<path d="M6.25537 0V17.874H35.3165C39.8277 17.874 43.4848 13.2983 43.4848 7.65399V0H6.25537Z" fill="white"/>
<path d="M8.51473 35.1875C6.78292 28.0023 6.67445 20.807 8.71643 13.5982C8.72575 12.6884 9.32193 11.9597 10.0491 11.9693L23.0805 12.1599C23.8077 12.1716 24.3901 12.9175 24.3824 13.8273L24.1807 35.4166C24.1714 36.3264 23.5752 37.0551 22.8481 37.0455L9.81663 36.8549C9.08947 36.8432 8.50706 36.0973 8.51473 35.1875Z" fill="#F2F2F2"/>
<path opacity="0.2" d="M11.2186 36.0426C10.4914 36.0309 9.90901 35.285 9.91668 34.3752C8.18485 27.19 8.07639 19.9946 10.1184 12.7859C10.1224 12.499 10.187 12.2186 10.3055 11.973L10.0491 11.9692C9.32194 11.9596 8.72577 12.6883 8.71642 13.5981C6.67446 20.8068 6.78292 28.0021 8.51475 35.1873C8.50706 36.0972 9.08946 36.8431 9.81662 36.8547L22.848 37.0453C23.3192 37.0502 23.7564 36.7389 23.9935 36.2294L11.2186 36.0426Z" fill="black"/>
<path d="M20.8175 24.2222L12.0846 24.1248C11.7952 24.1211 11.563 23.8247 11.5659 23.4626C11.5689 23.1011 11.8051 22.8108 12.094 22.8136L20.8269 22.911C21.1162 22.9154 21.348 23.2125 21.3445 23.5745C21.341 23.935 21.1056 24.2243 20.8175 24.2222Z" fill="white"/>
<path d="M14.0316 20.5509L12.1103 20.5295C11.821 20.5274 11.5877 20.2322 11.5894 19.8701C11.591 19.508 11.827 19.2162 12.1164 19.2183L12.1197 19.2183L14.0409 19.2398C14.3303 19.2441 14.562 19.5412 14.5585 19.9032C14.5551 20.2637 14.3197 20.553 14.0316 20.5509Z" fill="white"/>
<path d="M20.7764 29.9864L12.0435 29.8889C11.7542 29.8846 11.5224 29.5875 11.5259 29.2255C11.5294 28.865 11.7648 28.5757 12.0529 28.5778L20.7858 28.6752C21.0752 28.6773 21.3084 28.9725 21.3068 29.3346C21.3051 29.6966 21.0691 29.9885 20.7798 29.9864L20.7764 29.9864Z" fill="white"/>
<path d="M20.7968 27.1043L12.0639 27.0069C11.7745 27.0041 11.5417 26.7083 11.544 26.3462C11.5462 25.9842 11.7826 25.6929 12.072 25.6957L12.0732 25.6957L20.8061 25.7931C21.0955 25.7975 21.3272 26.0946 21.3238 26.4566C21.3203 26.8171 21.0849 27.1064 20.7968 27.1043Z" fill="white"/>
<path d="M11.8159 15.3244C12.4388 15.3244 12.9437 14.6926 12.9437 13.9133C12.9437 13.1339 12.4388 12.5021 11.8159 12.5021C11.193 12.5021 10.688 13.1339 10.688 13.9133C10.688 14.6926 11.193 15.3244 11.8159 15.3244Z" fill="#3F3D56"/>
<path d="M21.3129 15.6855C21.9358 15.6855 22.4408 15.0537 22.4408 14.2743C22.4408 13.495 21.9358 12.8632 21.3129 12.8632C20.69 12.8632 20.1851 13.495 20.1851 14.2743C20.1851 15.0537 20.69 15.6855 21.3129 15.6855Z" fill="#3F3D56"/>
<path d="M32.352 3.44365C32.5712 3.44365 32.7489 3.22131 32.7489 2.94705C32.7489 2.67278 32.5712 2.45044 32.352 2.45044C32.1328 2.45044 31.9551 2.67278 31.9551 2.94705C31.9551 3.22131 32.1328 3.44365 32.352 3.44365Z" fill="#3F3D56"/>
<path d="M35.6708 3.44365C35.89 3.44365 36.0677 3.22131 36.0677 2.94705C36.0677 2.67278 35.89 2.45044 35.6708 2.45044C35.4516 2.45044 35.2739 2.67278 35.2739 2.94705C35.2739 3.22131 35.4516 3.44365 35.6708 3.44365Z" fill="#3F3D56"/>
<path d="M39.8559 3.44365C40.0751 3.44365 40.2528 3.22131 40.2528 2.94705C40.2528 2.67278 40.0751 2.45044 39.8559 2.45044C39.6367 2.45044 39.459 2.67278 39.459 2.94705C39.459 3.22131 39.6367 3.44365 39.8559 3.44365Z" fill="#3F3D56"/>
<path d="M67.5832 5.41638H57.6265V20.2211H67.5832V5.41638Z" fill="#3F3D56"/>
<path d="M58.2036 19.4989H67.0059V6.13855H58.2036V19.4989Z" fill="white"/>
<path d="M62.5816 7.2218C61.9337 7.2218 61.3262 7.44206 60.8053 7.82482C60.0636 8.37007 59.495 9.24571 59.231 10.2911C59.1256 10.7099 59.0693 11.1541 59.0693 11.6163V18.4156H66.14V7.2218H62.5816Z" fill="#3F3D56"/>
<path d="M64.4347 18.4106H60.3682C60.5652 17.7125 60.9851 17.1458 61.5214 16.8471C61.7903 16.696 62.088 16.6115 62.4015 16.6115C62.6272 16.6115 62.8458 16.6546 63.05 16.7374C63.6956 16.9911 64.2104 17.6154 64.4347 18.4106Z" fill="#34A836"/>
<path d="M59.6465 15.5269C59.4474 15.5269 59.2526 15.5612 59.0693 15.6243V18.4156H61.8053C61.8096 18.356 61.811 18.2964 61.811 18.235C61.811 17.7277 61.6985 17.2511 61.5051 16.8466C61.1256 16.0559 60.4359 15.5269 59.6465 15.5269Z" fill="#FF0000"/>
<path d="M66.14 10.286V7.94709C65.7806 7.60885 65.3319 7.40735 64.8459 7.40735C64.0967 7.40735 63.4367 7.88592 63.0499 8.61279C62.8457 8.53002 62.6271 8.48684 62.4013 8.48684C62.0879 8.48684 61.7902 8.5714 61.5213 8.72253C61.517 8.72491 61.5131 8.72804 61.5088 8.73045C61.5075 8.72772 61.5064 8.72482 61.5051 8.7221C61.3305 8.3592 61.091 8.05047 60.8053 7.82478C60.0636 8.37003 59.495 9.24568 59.231 10.291H60.3696C60.7328 11.519 61.1076 12.3013 61.4919 12.7173C60.6962 13.1825 60.3916 14.4176 60.8081 15.3881C61.628 17.2989 62.2667 17.6957 62.8139 17.3281C62.7337 17.6104 62.6889 17.9139 62.6889 18.2306C62.6889 18.2918 62.6904 18.3512 62.6947 18.4105H66.14V16.0716C65.7806 15.7334 65.3319 15.5319 64.8459 15.5319C64.4531 15.5319 64.0854 15.6644 63.7682 15.8943L63.775 15.8792C64.2195 14.888 65.048 14.263 65.9564 14.263H66.14V11.9241C65.7806 11.5859 65.3319 11.3844 64.8459 11.3844C64.3882 11.3844 63.9641 11.5637 63.615 11.8684L63.629 11.8459C64.234 10.8721 65.1542 10.286 66.14 10.286Z" fill="#FF0000"/>
<path d="M62.388 8.12451H62.2437V18.4156H62.388V8.12451Z" fill="#3F3D56"/>
<path d="M88.3868 59.346C85.8646 59.5288 83.1164 59.3354 80.1929 59.346V51.7644C82.769 52.2187 85.5163 52.172 88.3868 51.7644V59.346Z" fill="#3F3D56"/>
<path d="M84.5782 52.4451H83.8857L84.1166 37.124H84.3474L84.5782 52.4451Z" fill="#3F3D56"/>
<path d="M87.6944 52.5487H87.002L87.2328 37.2275H87.4636L87.6944 52.5487Z" fill="#3F3D56"/>
<path d="M81.8087 52.5487H81.1162L81.3471 37.2275H81.5778L81.8087 52.5487Z" fill="#3F3D56"/>
<path d="M85.1555 27.3202L86.2733 25.3635C85.9418 24.3263 85.5589 23.3112 85.1265 22.3228L84.4037 22.9841L84.976 21.9823C84.4306 20.7662 84.0014 20 84.0014 20C84.0014 20 81.7596 24.0013 81.0107 28.2378L82.4451 30.7487L80.8571 29.296C80.8006 29.7895 80.7715 30.2866 80.77 30.7842C80.77 35.8016 82.2168 39.8691 84.0014 39.8691C85.7861 39.8691 87.2328 35.8016 87.2328 30.7842C87.2328 29.2287 86.9221 27.6014 86.4936 26.096L85.1555 27.3202Z" fill="#E6E6E6"/>
<path d="M88.2712 27.5817L89.389 25.625C89.0575 24.5878 88.6746 23.5726 88.2422 22.5843L87.5194 23.2456L88.0917 22.2437C87.5463 21.0277 87.1171 20.2615 87.1171 20.2615C87.1171 20.2615 84.8754 24.2628 84.1264 28.4993L85.5608 31.0102L83.9729 29.5575C83.9163 30.051 83.8872 30.548 83.8857 31.0457C83.8857 36.0631 85.3325 40.1305 87.1171 40.1305C88.9018 40.1305 90.3485 36.0631 90.3485 31.0457C90.3485 29.4902 90.0378 27.8629 89.6093 26.3575L88.2712 27.5817Z" fill="#FFA500"/>
<path d="M82.3855 27.5817L83.5032 25.625C83.1718 24.5878 82.7889 23.5726 82.3565 22.5843L81.6337 23.2456L82.206 22.2437C81.6606 21.0277 81.2314 20.2615 81.2314 20.2615C81.2314 20.2615 78.9896 24.2628 78.2407 28.4993L79.675 31.0102L78.0871 29.5575C78.0306 30.051 78.0015 30.548 78 31.0457C78 36.0631 79.4467 40.1305 81.2314 40.1305C83.016 40.1305 84.4628 36.0631 84.4628 31.0457C84.4628 29.4902 84.1521 27.8629 83.7235 26.3575L82.3855 27.5817Z" fill="#FFA500"/>
<path d="M8.10327 50.9998L8.49648 50.3115C8.37987 49.9466 8.24519 49.5895 8.09307 49.2418L7.8388 49.4744L8.04013 49.122C7.84826 48.6942 7.69729 48.4247 7.69729 48.4247C7.69729 48.4247 6.90868 49.8323 6.64521 51.3226L7.1498 52.2059L6.59119 51.6948C6.5713 51.8684 6.56106 52.0433 6.56055 52.2183C6.56055 53.9834 7.06948 55.4142 7.69729 55.4142C8.3251 55.4142 8.83403 53.9834 8.83403 52.2183C8.82225 51.6568 8.73455 51.1006 8.57398 50.5691L8.10327 50.9998Z" fill="#34A836"/>
<path d="M10.8864 52.5299L11.5941 52.3582C11.7394 52.0068 11.8671 51.6464 11.9766 51.2787L11.6516 51.2395L12.014 51.1516C12.1454 50.6954 12.2069 50.3839 12.2069 50.3839C12.2069 50.3839 10.7705 50.7476 9.65383 51.5904L9.45921 52.6191L9.38325 51.8104C9.2608 51.9172 9.14441 52.0326 9.03475 52.156C7.93287 53.4041 7.39949 54.8234 7.84341 55.3263C8.28734 55.8291 9.54046 55.2249 10.6423 53.9769C10.9846 53.5704 11.2698 53.1068 11.488 52.6024L10.8864 52.5299Z" fill="#34A836"/>
<path d="M11.1449 59.3598C9.50368 59.4787 7.71541 59.3528 5.81299 59.3598V54.4263C7.48934 54.7219 9.27701 54.6915 11.1449 54.4263V59.3598Z" fill="#3F3D56"/>
<path d="M78.9384 60.9082H56.7803V93.4569H78.9384V60.9082Z" fill="#E6E6E6"/>
<path d="M11.656 62.6075H10.502V93.4569H11.656V62.6075Z" fill="#E6E6E6"/>
<path d="M78.9383 58.686H0V61.3004H78.9383V58.686Z" fill="#E6E6E6"/>
<path d="M12.2329 61.3003H9.9248V63.9146H12.2329V61.3003Z" fill="#E6E6E6"/>
<path d="M69.6048 62.8036L69.4749 63.3919H66.2435L66.0488 62.8036H57.8188V68.8167H77.8996V62.8036H69.6048Z" fill="#3F3D56"/>
<path d="M69.6048 70.3853L69.4749 70.9734H66.2435L66.0488 70.3853H57.8188V76.3982H77.8996V70.3853H69.6048Z" fill="#3F3D56"/>
<path d="M69.6048 77.9669L69.4749 78.5551H66.2435L66.0488 77.9669H57.8188V83.9799H77.8996V77.9669H69.6048Z" fill="#3F3D56"/>
<path d="M69.6048 85.5486L69.4749 86.1368H66.2435L66.0488 85.5486H57.8188V91.5616H77.8996V85.5486H69.6048Z" fill="#3F3D56"/>
<path d="M42.8158 58.2937H36.0068L36.2376 54.8951H42.585L42.8158 58.2937Z" fill="#E6E6E6"/>
<path d="M43.2775 57.9017H35.6606V58.686H43.2775V57.9017Z" fill="#E6E6E6"/>
<path d="M52.4525 33H26.4283C26.2446 33 26.0685 33.0826 25.9387 33.2297C25.8088 33.3768 25.7358 33.5763 25.7358 33.7843V51.758H53.145V33.7843C53.145 33.5763 53.072 33.3768 52.9421 33.2297C52.8123 33.0826 52.6362 33 52.4525 33Z" fill="#3F3D56"/>
<path d="M25.7358 51.7579V54.6991C25.7358 54.9071 25.8088 55.1066 25.9387 55.2537C26.0685 55.4008 26.2446 55.4834 26.4283 55.4834H52.4525C52.6362 55.4834 52.8123 55.4008 52.9421 55.2537C53.072 55.1066 53.145 54.9071 53.145 54.6991V51.7579H25.7358Z" fill="#E6E6E6"/>
<path d="M51.8177 34.634H27.1206V50.3201H51.8177V34.634Z" fill="white"/>
<path d="M39.4693 54.3723C39.8517 54.3723 40.1617 54.0212 40.1617 53.588C40.1617 53.1549 39.8517 52.8037 39.4693 52.8037C39.0869 52.8037 38.7769 53.1549 38.7769 53.588C38.7769 54.0212 39.0869 54.3723 39.4693 54.3723Z" fill="#3F3D56"/>
<path d="M41.7885 39.0618H35.1294V39.4947H41.7885V39.0618Z" fill="#3F3D56"/>
<path d="M45.4125 40.6411H35.1294V41.0741H45.4125V40.6411Z" fill="#34A836"/>
<path d="M43.5099 42.1292H35.1294V42.5621H43.5099V42.1292Z" fill="#34A836"/>
<path d="M40.0218 43.6115H35.1294V44.0444H40.0218V43.6115Z" fill="#3F3D56"/>
<path d="M42.5133 45.0939H35.1294V45.5268H42.5133V45.0939Z" fill="#3F3D56"/>
<path opacity="0.2" d="M27.8706 58.7515L29.4174 65.5519L32.1603 73.1894L32.0652 73.4538L28.7938 65.6795L27.8706 58.7515Z" fill="black"/>
<path d="M16.3297 96.2546L15.7842 96.0417L21.0684 78.2638L21.8323 78.5619L16.3297 96.2546Z" fill="#3F3D56"/>
<path d="M36.5264 96.2546L37.072 96.0417L31.7877 78.2638L31.0239 78.5619L36.5264 96.2546Z" fill="#3F3D56"/>
<path d="M25.3606 99.9263L25.9376 99.9286L26.1169 79.1465L25.3091 79.1433L25.3606 99.9263Z" fill="#3F3D56"/>
<path d="M14.994 67.8178L16.5768 75.0636C16.7985 76.0783 17.26 77.0055 17.9118 77.7455C18.5635 78.4856 19.381 79.0105 20.2763 79.2641C24.6905 80.514 29.3121 80.4803 33.7117 79.166L36.0749 78.4601C37.448 78.0499 38.4806 76.7141 38.5783 75.1095C38.6179 74.5422 38.5272 73.9729 38.315 73.4571C38.3058 73.4349 38.2965 73.4129 38.2872 73.391C37.979 72.674 37.5035 72.066 36.9123 71.633C36.321 71.2 35.6365 70.9583 34.9327 70.9342L32.4293 70.8428L23.3121 66.2676C23.3121 66.2676 20.1765 64.4636 17.5988 64.2617C15.8964 64.1283 14.5842 65.9415 14.994 67.8178Z" fill="#FFA500"/>
<path d="M70.5711 45.026H61.5693V58.8821H70.5711V45.026Z" fill="#E6E6E6"/>
<path d="M69.5328 46.6248H62.6084V57.2833H69.5328V46.6248Z" fill="white"/>
<path d="M64.268 49.1743H63.4526V50.0979H64.268V49.1743Z" fill="#3F3D56"/>
<path d="M68.6884 53.0741H65.3335V53.5071H68.6884V53.0741Z" fill="#3F3D56"/>
</svg>
