<svg width="152" height="45" viewBox="0 0 152 45" fill="none" xmlns="http://www.w3.org/2000/svg">
<rect y="5" width="152" height="40" fill="#36A834"/>
<path d="M18.84 36.28C18.84 36.748 18.48 37 18.12 37C17.76 37 17.4 36.748 17.4 36.28V24.04C17.4 21.16 15.06 18.82 12.18 18.82C9.3 18.82 6.96 21.16 6.96 24.04V36.28C6.96 36.748 6.6 37 6.24 37C5.88 37 5.52 36.748 5.52 36.28V24.04C5.52 20.368 8.508 17.38 12.18 17.38C15.852 17.38 18.84 20.368 18.84 24.04V36.28ZM37.0116 30.7C37.0116 34.372 34.0236 37.36 30.3516 37.36C26.6796 37.36 23.6916 34.372 23.6916 30.7V24.04C23.6916 20.368 26.6796 17.38 30.3516 17.38C34.0236 17.38 37.0116 20.368 37.0116 24.04V30.7ZM35.5716 30.7V24.04C35.5716 21.16 33.2316 18.82 30.3516 18.82C27.4716 18.82 25.1316 21.16 25.1316 24.04V30.7C25.1316 33.58 27.4716 35.92 30.3516 35.92C33.2316 35.92 35.5716 33.58 35.5716 30.7ZM64.1916 36.28C64.1916 36.748 63.8316 37 63.4716 37C63.1116 37 62.7516 36.748 62.7516 36.28V23.32C62.7516 20.836 60.7356 18.82 58.2516 18.82C55.7676 18.82 53.7516 20.836 53.7516 23.32V36.28C53.7516 36.784 53.3916 37.036 53.0316 37.036C52.6716 37.036 52.3116 36.784 52.3116 36.28V23.32C52.3116 20.836 50.2956 18.82 47.8116 18.82C45.3276 18.82 43.3116 20.836 43.3116 23.32V36.28C43.3116 36.748 42.9516 37 42.5916 37C42.2316 37 41.8716 36.748 41.8716 36.28V23.32C41.8716 20.044 44.5356 17.38 47.8116 17.38C50.0796 17.38 52.0236 18.64 53.0316 20.476C54.0396 18.64 55.9836 17.38 58.2516 17.38C61.5276 17.38 64.1916 20.044 64.1916 23.32V36.28ZM80.8511 31.528C80.8511 34.984 78.0431 37.36 74.6951 37.36C71.4191 37.36 68.5031 35.416 68.5031 31.888C68.5031 28.684 71.0951 26.956 74.0831 26.308L79.4111 25.156V23.212C79.4111 20.584 77.8631 18.82 74.7671 18.82C71.4191 18.82 70.9151 20.98 70.1231 20.98C69.7631 20.98 69.4031 20.692 69.4031 20.296C69.4031 19.972 69.6551 19.684 69.8351 19.468C71.0951 17.992 72.9311 17.38 74.7671 17.38C78.6551 17.38 80.8511 19.792 80.8511 23.212V31.528ZM79.4111 31.528V26.632L74.2991 27.784C71.7791 28.36 69.9431 29.764 69.9431 31.888C69.9431 34.372 71.9231 35.92 74.6951 35.92C77.3591 35.92 79.4111 34.084 79.4111 31.528ZM98.8514 30.7C98.8514 34.372 95.8634 37.36 92.1914 37.36C88.5194 37.36 85.5314 34.372 85.5314 30.7V24.04C85.5314 20.368 88.5194 17.38 92.1914 17.38C94.3154 17.38 96.1874 18.352 97.4114 19.9V10.36C97.4114 9.892 97.7714 9.64 98.1314 9.64C98.4914 9.64 98.8514 9.892 98.8514 10.36V30.7ZM97.4114 30.7V24.04C97.4114 21.16 95.0714 18.82 92.1914 18.82C89.3114 18.82 86.9714 21.16 86.9714 24.04V30.7C86.9714 33.58 89.3114 35.92 92.1914 35.92C95.0714 35.92 97.4114 33.58 97.4114 30.7ZM117.027 30.7C117.027 34.372 114.039 37.36 110.367 37.36C106.695 37.36 103.707 34.372 103.707 30.7V24.04C103.707 20.368 106.695 17.38 110.367 17.38C114.039 17.38 117.027 20.368 117.027 24.04V30.7ZM115.587 30.7V24.04C115.587 21.16 113.247 18.82 110.367 18.82C107.487 18.82 105.147 21.16 105.147 24.04V30.7C105.147 33.58 107.487 35.92 110.367 35.92C113.247 35.92 115.587 33.58 115.587 30.7ZM145.287 36.28C145.287 36.748 144.927 37 144.567 37C144.207 37 143.847 36.748 143.847 36.28V14.032L134.415 36.568C134.271 36.928 134.019 37.108 133.767 37.108C133.515 37.108 133.263 36.928 133.119 36.568L123.687 14.032V36.28C123.687 36.748 123.327 37 122.967 37C122.607 37 122.247 36.748 122.247 36.28V10.432C122.247 9.892 122.571 9.604 122.931 9.604C123.183 9.604 123.471 9.784 123.615 10.144L133.767 34.408L143.919 10.144C144.063 9.784 144.351 9.604 144.603 9.604C144.963 9.604 145.287 9.892 145.287 10.432V36.28Z" fill="white"/>
</svg>
