<svg width="202" height="61" viewBox="0 0 202 61" fill="none" xmlns="http://www.w3.org/2000/svg">
<mask id="path-1-outside-1_2736_11" maskUnits="userSpaceOnUse" x="164" y="11" width="35" height="41" fill="black">
<rect fill="white" x="164" y="11" width="35" height="41"/>
<path d="M197.408 49.0164C197.408 49.6558 196.916 50 196.425 50C195.933 50 195.441 49.6558 195.441 49.0164V18.6244L182.556 49.4099C182.36 49.9016 182.015 50.1475 181.671 50.1475C181.327 50.1475 180.983 49.9016 180.786 49.4099L167.901 18.6244V49.0164C167.901 49.6558 167.41 50 166.918 50C166.426 50 165.934 49.6558 165.934 49.0164V13.7066C165.934 12.9689 166.377 12.5755 166.869 12.5755C167.213 12.5755 167.606 12.8214 167.803 13.3132L181.671 46.4592L195.539 13.3132C195.736 12.8214 196.13 12.5755 196.474 12.5755C196.966 12.5755 197.408 12.9689 197.408 13.7066V49.0164Z"/>
</mask>
<path d="M197.408 49.0164C197.408 49.6558 196.916 50 196.425 50C195.933 50 195.441 49.6558 195.441 49.0164V18.6244L182.556 49.4099C182.36 49.9016 182.015 50.1475 181.671 50.1475C181.327 50.1475 180.983 49.9016 180.786 49.4099L167.901 18.6244V49.0164C167.901 49.6558 167.41 50 166.918 50C166.426 50 165.934 49.6558 165.934 49.0164V13.7066C165.934 12.9689 166.377 12.5755 166.869 12.5755C167.213 12.5755 167.606 12.8214 167.803 13.3132L181.671 46.4592L195.539 13.3132C195.736 12.8214 196.13 12.5755 196.474 12.5755C196.966 12.5755 197.408 12.9689 197.408 13.7066V49.0164Z" fill="#36A834"/>
<path d="M195.441 18.6244H196.811L194.177 18.0955L195.441 18.6244ZM182.556 49.4099L181.293 48.8809L181.288 48.891L181.284 48.9011L182.556 49.4099ZM180.786 49.4099L182.058 48.9011L182.054 48.891L182.05 48.8809L180.786 49.4099ZM167.901 18.6244L169.165 18.0955L166.531 18.6244H167.901ZM167.803 13.3132L166.531 13.822L166.535 13.832L166.539 13.842L167.803 13.3132ZM181.671 46.4592L180.407 46.988L181.671 50.0086L182.935 46.988L181.671 46.4592ZM195.539 13.3132L196.803 13.842L196.807 13.832L196.811 13.822L195.539 13.3132ZM196.038 49.0164C196.038 48.9976 196.043 48.9498 196.07 48.8878C196.097 48.8264 196.137 48.772 196.184 48.7296C196.273 48.65 196.362 48.63 196.425 48.63V51.37C197.534 51.37 198.778 50.5446 198.778 49.0164H196.038ZM196.425 48.63C196.487 48.63 196.576 48.65 196.665 48.7296C196.712 48.772 196.752 48.8264 196.779 48.8878C196.807 48.9498 196.811 48.9976 196.811 49.0164H194.071C194.071 50.5446 195.316 51.37 196.425 51.37V48.63ZM196.811 49.0164V18.6244H194.071V49.0164H196.811ZM194.177 18.0955L181.293 48.8809L183.82 49.9388L196.705 19.1533L194.177 18.0955ZM181.284 48.9011C181.258 48.9673 181.251 48.9431 181.313 48.8933C181.38 48.8396 181.505 48.7775 181.671 48.7775V51.5175C182.741 51.5175 183.493 50.7582 183.828 49.9187L181.284 48.9011ZM181.671 48.7775C181.837 48.7775 181.962 48.8396 182.029 48.8933C182.091 48.9431 182.085 48.9673 182.058 48.9011L179.514 49.9187C179.85 50.7581 180.602 51.5175 181.671 51.5175V48.7775ZM182.05 48.8809L169.165 18.0955L166.638 19.1533L179.522 49.9388L182.05 48.8809ZM166.531 18.6244V49.0164H169.271V18.6244H166.531ZM166.531 49.0164C166.531 48.9976 166.536 48.9498 166.563 48.8878C166.59 48.8264 166.63 48.772 166.678 48.7296C166.766 48.65 166.855 48.63 166.918 48.63V51.37C168.027 51.37 169.271 50.5446 169.271 49.0164H166.531ZM166.918 48.63C166.981 48.63 167.07 48.65 167.158 48.7296C167.205 48.772 167.246 48.8264 167.273 48.8878C167.3 48.9498 167.304 48.9976 167.304 49.0164H164.564C164.564 50.5446 165.809 51.37 166.918 51.37V48.63ZM167.304 49.0164V13.7066H164.564V49.0164H167.304ZM167.304 13.7066C167.304 13.6142 167.328 13.6785 167.234 13.7827C167.138 13.8881 166.999 13.9455 166.869 13.9455V11.2055C166.247 11.2055 165.64 11.4596 165.2 11.9461C164.762 12.4315 164.564 13.0613 164.564 13.7066H167.304ZM166.869 13.9455C166.562 13.9455 166.507 13.7608 166.531 13.822L169.075 12.8044C168.706 11.882 167.864 11.2055 166.869 11.2055V13.9455ZM166.539 13.842L180.407 46.988L182.935 45.9304L169.067 12.7844L166.539 13.842ZM182.935 46.988L196.803 13.842L194.276 12.7844L180.407 45.9304L182.935 46.988ZM196.811 13.822C196.836 13.7608 196.78 13.9455 196.474 13.9455V11.2055C195.479 11.2055 194.636 11.882 194.267 12.8044L196.811 13.822ZM196.474 13.9455C196.344 13.9455 196.204 13.8881 196.109 13.7827C196.015 13.6785 196.038 13.6142 196.038 13.7066H198.778C198.778 13.0613 198.58 12.4315 198.142 11.9461C197.703 11.4596 197.096 11.2055 196.474 11.2055V13.9455ZM196.038 13.7066V49.0164H198.778V13.7066H196.038Z" fill="#34A836" mask="url(#path-1-outside-1_2736_11)"/>
<mask id="path-3-outside-2_2736_11" maskUnits="userSpaceOnUse" x="2" y="11" width="158" height="41" fill="black">
<rect fill="white" x="2" y="11" width="158" height="41"/>
<path d="M21.6383 49.0164C21.6383 49.6558 21.1466 50 20.6548 50C20.163 50 19.6712 49.6558 19.6712 49.0164V32.2959C19.6712 28.3617 16.4746 25.1651 12.5404 25.1651C8.60616 25.1651 5.40958 28.3617 5.40958 32.2959V49.0164C5.40958 49.6558 4.9178 50 4.42602 50C3.93424 50 3.44246 49.6558 3.44246 49.0164V32.2959C3.44246 27.2798 7.52424 23.198 12.5404 23.198C17.5566 23.198 21.6383 27.2798 21.6383 32.2959V49.0164ZM46.9535 41.3938C46.9535 46.41 42.8717 50.4918 37.8556 50.4918C32.8394 50.4918 28.7576 46.41 28.7576 41.3938V32.2959C28.7576 27.2798 32.8394 23.198 37.8556 23.198C42.8717 23.198 46.9535 27.2798 46.9535 32.2959V41.3938ZM44.9864 41.3938V32.2959C44.9864 28.3617 41.7898 25.1651 37.8556 25.1651C33.9213 25.1651 30.7247 28.3617 30.7247 32.2959V41.3938C30.7247 45.3281 33.9213 48.5247 37.8556 48.5247C41.7898 48.5247 44.9864 45.3281 44.9864 41.3938ZM84.5747 49.0164C84.5747 49.6558 84.0829 50 83.5911 50C83.0993 50 82.6076 49.6558 82.6076 49.0164V31.3123C82.6076 27.9191 79.8536 25.1651 76.4603 25.1651C73.067 25.1651 70.3131 27.9191 70.3131 31.3123V49.0164C70.3131 49.7049 69.8213 50.0492 69.3295 50.0492C68.8377 50.0492 68.3459 49.7049 68.3459 49.0164V31.3123C68.3459 27.9191 65.592 25.1651 62.1987 25.1651C58.8054 25.1651 56.0514 27.9191 56.0514 31.3123V49.0164C56.0514 49.6558 55.5596 50 55.0679 50C54.5761 50 54.0843 49.6558 54.0843 49.0164V31.3123C54.0843 26.8371 57.7235 23.198 62.1987 23.198C65.2969 23.198 67.9525 24.9192 69.3295 27.4273C70.7065 24.9192 73.3621 23.198 76.4603 23.198C80.9355 23.198 84.5747 26.8371 84.5747 31.3123V49.0164ZM107.824 42.5249C107.824 47.246 103.988 50.4918 99.4149 50.4918C94.9397 50.4918 90.9563 47.8362 90.9563 43.0167C90.9563 38.6399 94.4971 36.2793 98.5789 35.3941L105.857 33.8204V31.1648C105.857 27.5748 103.743 25.1651 99.5133 25.1651C94.9397 25.1651 94.2512 28.1158 93.1693 28.1158C92.6775 28.1158 92.1858 27.7224 92.1858 27.1814C92.1858 26.7388 92.53 26.3454 92.7759 26.0503C94.4971 24.034 97.0052 23.198 99.5133 23.198C104.825 23.198 107.824 26.4929 107.824 31.1648V42.5249ZM105.857 42.5249V35.8367L98.874 37.4104C95.4315 38.1973 92.9234 40.1152 92.9234 43.0167C92.9234 46.41 95.6282 48.5247 99.4149 48.5247C103.054 48.5247 105.857 46.0166 105.857 42.5249ZM132.906 41.3938C132.906 46.41 128.824 50.4918 123.808 50.4918C118.791 50.4918 114.71 46.41 114.71 41.3938V32.2959C114.71 27.2798 118.791 23.198 123.808 23.198C126.709 23.198 129.266 24.5258 130.938 26.6404V13.6083C130.938 12.9689 131.43 12.6247 131.922 12.6247C132.414 12.6247 132.906 12.9689 132.906 13.6083V41.3938ZM130.938 41.3938V32.2959C130.938 28.3617 127.742 25.1651 123.808 25.1651C119.873 25.1651 116.677 28.3617 116.677 32.2959V41.3938C116.677 45.3281 119.873 48.5247 123.808 48.5247C127.742 48.5247 130.938 45.3281 130.938 41.3938ZM158.226 41.3938C158.226 46.41 154.145 50.4918 149.129 50.4918C144.112 50.4918 140.031 46.41 140.031 41.3938V32.2959C140.031 27.2798 144.112 23.198 149.129 23.198C154.145 23.198 158.226 27.2798 158.226 32.2959V41.3938ZM156.259 41.3938V32.2959C156.259 28.3617 153.063 25.1651 149.129 25.1651C145.194 25.1651 141.998 28.3617 141.998 32.2959V41.3938C141.998 45.3281 145.194 48.5247 149.129 48.5247C153.063 48.5247 156.259 45.3281 156.259 41.3938Z"/>
</mask>
<path d="M21.6383 49.0164C21.6383 49.6558 21.1466 50 20.6548 50C20.163 50 19.6712 49.6558 19.6712 49.0164V32.2959C19.6712 28.3617 16.4746 25.1651 12.5404 25.1651C8.60616 25.1651 5.40958 28.3617 5.40958 32.2959V49.0164C5.40958 49.6558 4.9178 50 4.42602 50C3.93424 50 3.44246 49.6558 3.44246 49.0164V32.2959C3.44246 27.2798 7.52424 23.198 12.5404 23.198C17.5566 23.198 21.6383 27.2798 21.6383 32.2959V49.0164ZM46.9535 41.3938C46.9535 46.41 42.8717 50.4918 37.8556 50.4918C32.8394 50.4918 28.7576 46.41 28.7576 41.3938V32.2959C28.7576 27.2798 32.8394 23.198 37.8556 23.198C42.8717 23.198 46.9535 27.2798 46.9535 32.2959V41.3938ZM44.9864 41.3938V32.2959C44.9864 28.3617 41.7898 25.1651 37.8556 25.1651C33.9213 25.1651 30.7247 28.3617 30.7247 32.2959V41.3938C30.7247 45.3281 33.9213 48.5247 37.8556 48.5247C41.7898 48.5247 44.9864 45.3281 44.9864 41.3938ZM84.5747 49.0164C84.5747 49.6558 84.0829 50 83.5911 50C83.0993 50 82.6076 49.6558 82.6076 49.0164V31.3123C82.6076 27.9191 79.8536 25.1651 76.4603 25.1651C73.067 25.1651 70.3131 27.9191 70.3131 31.3123V49.0164C70.3131 49.7049 69.8213 50.0492 69.3295 50.0492C68.8377 50.0492 68.3459 49.7049 68.3459 49.0164V31.3123C68.3459 27.9191 65.592 25.1651 62.1987 25.1651C58.8054 25.1651 56.0514 27.9191 56.0514 31.3123V49.0164C56.0514 49.6558 55.5596 50 55.0679 50C54.5761 50 54.0843 49.6558 54.0843 49.0164V31.3123C54.0843 26.8371 57.7235 23.198 62.1987 23.198C65.2969 23.198 67.9525 24.9192 69.3295 27.4273C70.7065 24.9192 73.3621 23.198 76.4603 23.198C80.9355 23.198 84.5747 26.8371 84.5747 31.3123V49.0164ZM107.824 42.5249C107.824 47.246 103.988 50.4918 99.4149 50.4918C94.9397 50.4918 90.9563 47.8362 90.9563 43.0167C90.9563 38.6399 94.4971 36.2793 98.5789 35.3941L105.857 33.8204V31.1648C105.857 27.5748 103.743 25.1651 99.5133 25.1651C94.9397 25.1651 94.2512 28.1158 93.1693 28.1158C92.6775 28.1158 92.1858 27.7224 92.1858 27.1814C92.1858 26.7388 92.53 26.3454 92.7759 26.0503C94.4971 24.034 97.0052 23.198 99.5133 23.198C104.825 23.198 107.824 26.4929 107.824 31.1648V42.5249ZM105.857 42.5249V35.8367L98.874 37.4104C95.4315 38.1973 92.9234 40.1152 92.9234 43.0167C92.9234 46.41 95.6282 48.5247 99.4149 48.5247C103.054 48.5247 105.857 46.0166 105.857 42.5249ZM132.906 41.3938C132.906 46.41 128.824 50.4918 123.808 50.4918C118.791 50.4918 114.71 46.41 114.71 41.3938V32.2959C114.71 27.2798 118.791 23.198 123.808 23.198C126.709 23.198 129.266 24.5258 130.938 26.6404V13.6083C130.938 12.9689 131.43 12.6247 131.922 12.6247C132.414 12.6247 132.906 12.9689 132.906 13.6083V41.3938ZM130.938 41.3938V32.2959C130.938 28.3617 127.742 25.1651 123.808 25.1651C119.873 25.1651 116.677 28.3617 116.677 32.2959V41.3938C116.677 45.3281 119.873 48.5247 123.808 48.5247C127.742 48.5247 130.938 45.3281 130.938 41.3938ZM158.226 41.3938C158.226 46.41 154.145 50.4918 149.129 50.4918C144.112 50.4918 140.031 46.41 140.031 41.3938V32.2959C140.031 27.2798 144.112 23.198 149.129 23.198C154.145 23.198 158.226 27.2798 158.226 32.2959V41.3938ZM156.259 41.3938V32.2959C156.259 28.3617 153.063 25.1651 149.129 25.1651C145.194 25.1651 141.998 28.3617 141.998 32.2959V41.3938C141.998 45.3281 145.194 48.5247 149.129 48.5247C153.063 48.5247 156.259 45.3281 156.259 41.3938Z" fill="black"/>
<path d="M20.2683 49.0164C20.2683 48.9976 20.2727 48.9498 20.2999 48.8878C20.327 48.8264 20.3675 48.772 20.4145 48.7296C20.503 48.65 20.5921 48.63 20.6548 48.63V51.37C21.7638 51.37 23.0083 50.5446 23.0083 49.0164H20.2683ZM20.6548 48.63C20.7175 48.63 20.8066 48.65 20.8951 48.7296C20.9421 48.772 20.9826 48.8264 21.0096 48.8878C21.0369 48.9498 21.0412 48.9976 21.0412 49.0164H18.3012C18.3012 50.5446 19.5457 51.37 20.6548 51.37V48.63ZM21.0412 49.0164V32.2959H18.3012V49.0164H21.0412ZM21.0412 32.2959C21.0412 27.605 17.2313 23.7951 12.5404 23.7951V26.5351C15.718 26.5351 18.3012 29.1183 18.3012 32.2959H21.0412ZM12.5404 23.7951C7.84953 23.7951 4.03958 27.605 4.03958 32.2959H6.77958C6.77958 29.1183 9.36279 26.5351 12.5404 26.5351V23.7951ZM4.03958 32.2959V49.0164H6.77958V32.2959H4.03958ZM4.03958 49.0164C4.03958 48.9976 4.04392 48.9498 4.07119 48.8878C4.09824 48.8264 4.13872 48.772 4.18574 48.7296C4.27422 48.65 4.36331 48.63 4.42602 48.63V51.37C5.53509 51.37 6.77958 50.5446 6.77958 49.0164H4.03958ZM4.42602 48.63C4.48874 48.63 4.57782 48.65 4.66631 48.7296C4.71333 48.772 4.75381 48.8264 4.78085 48.8878C4.80813 48.9498 4.81246 48.9976 4.81246 49.0164H2.07246C2.07246 50.5446 3.31696 51.37 4.42602 51.37V48.63ZM4.81246 49.0164V32.2959H2.07246V49.0164H4.81246ZM4.81246 32.2959C4.81246 28.0364 8.28087 24.568 12.5404 24.568V21.828C6.76761 21.828 2.07246 26.5231 2.07246 32.2959H4.81246ZM12.5404 24.568C16.7999 24.568 20.2683 28.0364 20.2683 32.2959H23.0083C23.0083 26.5231 18.3132 21.828 12.5404 21.828V24.568ZM20.2683 32.2959V49.0164H23.0083V32.2959H20.2683ZM45.5835 41.3938C45.5835 45.6534 42.1151 49.1218 37.8556 49.1218V51.8618C43.6283 51.8618 48.3235 47.1666 48.3235 41.3938H45.5835ZM37.8556 49.1218C33.596 49.1218 30.1276 45.6534 30.1276 41.3938H27.3876C27.3876 47.1666 32.0828 51.8618 37.8556 51.8618V49.1218ZM30.1276 41.3938V32.2959H27.3876V41.3938H30.1276ZM30.1276 32.2959C30.1276 28.0364 33.596 24.568 37.8556 24.568V21.828C32.0828 21.828 27.3876 26.5231 27.3876 32.2959H30.1276ZM37.8556 24.568C42.1151 24.568 45.5835 28.0364 45.5835 32.2959H48.3235C48.3235 26.5231 43.6283 21.828 37.8556 21.828V24.568ZM45.5835 32.2959V41.3938H48.3235V32.2959H45.5835ZM46.3564 41.3938V32.2959H43.6164V41.3938H46.3564ZM46.3564 32.2959C46.3564 27.605 42.5464 23.7951 37.8556 23.7951V26.5351C41.0332 26.5351 43.6164 29.1183 43.6164 32.2959H46.3564ZM37.8556 23.7951C33.1647 23.7951 29.3547 27.605 29.3547 32.2959H32.0947C32.0947 29.1183 34.6779 26.5351 37.8556 26.5351V23.7951ZM29.3547 32.2959V41.3938H32.0947V32.2959H29.3547ZM29.3547 41.3938C29.3547 46.0847 33.1647 49.8947 37.8556 49.8947V47.1547C34.6779 47.1547 32.0947 44.5715 32.0947 41.3938H29.3547ZM37.8556 49.8947C42.5464 49.8947 46.3564 46.0847 46.3564 41.3938H43.6164C43.6164 44.5715 41.0332 47.1547 37.8556 47.1547V49.8947ZM69.3295 27.4273L68.1286 28.0866L69.3295 30.274L70.5304 28.0866L69.3295 27.4273ZM83.2047 49.0164C83.2047 48.9976 83.209 48.9498 83.2363 48.8878C83.2633 48.8264 83.3038 48.772 83.3508 48.7296C83.4393 48.65 83.5284 48.63 83.5911 48.63V51.37C84.7002 51.37 85.9447 50.5446 85.9447 49.0164H83.2047ZM83.5911 48.63C83.6538 48.63 83.7429 48.65 83.8314 48.7296C83.8784 48.772 83.9189 48.8264 83.946 48.8878C83.9732 48.9498 83.9776 48.9976 83.9776 49.0164H81.2376C81.2376 50.5446 82.4821 51.37 83.5911 51.37V48.63ZM83.9776 49.0164V31.3123H81.2376V49.0164H83.9776ZM83.9776 31.3123C83.9776 27.1624 80.6102 23.7951 76.4603 23.7951V26.5351C79.097 26.5351 81.2376 28.6757 81.2376 31.3123H83.9776ZM76.4603 23.7951C72.3104 23.7951 68.9431 27.1624 68.9431 31.3123H71.6831C71.6831 28.6757 73.8237 26.5351 76.4603 26.5351V23.7951ZM68.9431 31.3123V49.0164H71.6831V31.3123H68.9431ZM68.9431 49.0164C68.9431 49.0236 68.9423 48.9933 68.9639 48.9413C68.9858 48.8889 69.022 48.8351 69.0709 48.7894C69.1656 48.701 69.2648 48.6792 69.3295 48.6792V51.4192C69.8859 51.4192 70.4769 51.2252 70.9405 50.7925C71.4242 50.3411 71.6831 49.7097 71.6831 49.0164H68.9431ZM69.3295 48.6792C69.3941 48.6792 69.4933 48.701 69.5881 48.7894C69.6369 48.8351 69.6732 48.8889 69.6951 48.9413C69.7167 48.9933 69.7159 49.0236 69.7159 49.0164H66.9759C66.9759 49.7097 67.2348 50.3411 67.7185 50.7925C68.1821 51.2252 68.7731 51.4192 69.3295 51.4192V48.6792ZM69.7159 49.0164V31.3123H66.9759V49.0164H69.7159ZM69.7159 31.3123C69.7159 27.1624 66.3486 23.7951 62.1987 23.7951V26.5351C64.8353 26.5351 66.9759 28.6757 66.9759 31.3123H69.7159ZM62.1987 23.7951C58.0488 23.7951 54.6814 27.1624 54.6814 31.3123H57.4214C57.4214 28.6757 59.562 26.5351 62.1987 26.5351V23.7951ZM54.6814 31.3123V49.0164H57.4214V31.3123H54.6814ZM54.6814 49.0164C54.6814 48.9976 54.6858 48.9498 54.713 48.8878C54.7401 48.8264 54.7806 48.772 54.8276 48.7296C54.9161 48.65 55.0052 48.63 55.0679 48.63V51.37C56.1769 51.37 57.4214 50.5446 57.4214 49.0164H54.6814ZM55.0679 48.63C55.1306 48.63 55.2197 48.65 55.3082 48.7296C55.3552 48.772 55.3957 48.8264 55.4227 48.8878C55.45 48.9498 55.4543 48.9976 55.4543 49.0164H52.7143C52.7143 50.5446 53.9588 51.37 55.0679 51.37V48.63ZM55.4543 49.0164V31.3123H52.7143V49.0164H55.4543ZM55.4543 31.3123C55.4543 27.5938 58.4801 24.568 62.1987 24.568V21.828C56.9669 21.828 52.7143 26.0805 52.7143 31.3123H55.4543ZM62.1987 24.568C64.7718 24.568 66.9799 25.9943 68.1286 28.0866L70.5304 26.768C68.9251 23.8441 65.822 21.828 62.1987 21.828V24.568ZM70.5304 28.0866C71.6791 25.9943 73.8872 24.568 76.4603 24.568V21.828C72.837 21.828 69.7339 23.8441 68.1286 26.768L70.5304 28.0866ZM76.4603 24.568C80.1789 24.568 83.2047 27.5938 83.2047 31.3123H85.9447C85.9447 26.0805 81.6921 21.828 76.4603 21.828V24.568ZM83.2047 31.3123V49.0164H85.9447V31.3123H83.2047ZM98.5789 35.3941L98.2894 34.0551L98.2885 34.0552L98.5789 35.3941ZM105.857 33.8204L106.147 35.1595L107.227 34.9259V33.8204H105.857ZM92.7759 26.0503L91.7339 25.1608L91.7286 25.167L91.7234 25.1732L92.7759 26.0503ZM105.857 35.8367H107.227V34.1236L105.556 34.5002L105.857 35.8367ZM98.874 37.4104L98.5728 36.0739L98.5687 36.0749L98.874 37.4104ZM106.454 42.5249C106.454 46.3783 103.348 49.1218 99.4149 49.1218V51.8618C104.629 51.8618 109.194 48.1138 109.194 42.5249H106.454ZM99.4149 49.1218C97.4341 49.1218 95.6416 48.5326 94.3724 47.4992C93.1327 46.4898 92.3263 45.0093 92.3263 43.0167H89.5863C89.5863 45.8436 90.7716 48.1007 92.6424 49.6239C94.4837 51.1232 96.9205 51.8618 99.4149 51.8618V49.1218ZM92.3263 43.0167C92.3263 41.2474 93.0228 39.9254 94.1502 38.9173C95.3136 37.8769 96.9746 37.1439 98.8693 36.733L98.2885 34.0552C96.1014 34.5296 93.9511 35.4194 92.3237 36.8748C90.6602 38.3625 89.5863 40.4092 89.5863 43.0167H92.3263ZM98.8684 36.7332L106.147 35.1595L105.568 32.4814L98.2894 34.0551L98.8684 36.7332ZM107.227 33.8204V31.1648H104.487V33.8204H107.227ZM107.227 31.1648C107.227 29.1035 106.615 27.2174 105.237 25.8471C103.858 24.4759 101.886 23.7951 99.5133 23.7951V26.5351C101.37 26.5351 102.57 27.0592 103.305 27.7903C104.042 28.5224 104.487 29.6362 104.487 31.1648H107.227ZM99.5133 23.7951C96.8747 23.7951 95.2533 24.6662 94.1513 25.591C93.6721 25.9931 93.2138 26.4852 93.0251 26.6664C92.7038 26.9748 92.8252 26.7458 93.1693 26.7458V29.4858C94.0544 29.4858 94.6675 28.8879 94.9226 28.643C95.3102 28.271 95.5127 28.0255 95.9126 27.6899C96.5686 27.1394 97.5783 26.5351 99.5133 26.5351V23.7951ZM93.1693 26.7458C93.278 26.7458 93.3547 26.7837 93.4096 26.8331C93.475 26.892 93.5557 27.0141 93.5557 27.1814H90.8158C90.8158 28.6112 92.0602 29.4858 93.1693 29.4858V26.7458ZM93.5557 27.1814C93.5557 27.3146 93.506 27.3591 93.5567 27.2764C93.5782 27.2413 93.6102 27.1956 93.6582 27.1344C93.7088 27.0699 93.7582 27.0116 93.8283 26.9274L91.7234 25.1732C91.6225 25.2944 91.4007 25.5507 91.2205 25.8446C91.0376 26.1431 90.8158 26.6056 90.8158 27.1814H93.5557ZM93.8179 26.9398C95.2142 25.3041 97.2945 24.568 99.5133 24.568V21.828C96.7159 21.828 93.7801 22.7639 91.7339 25.1608L93.8179 26.9398ZM99.5133 24.568C101.881 24.568 103.585 25.2961 104.694 26.4003C105.805 27.5064 106.454 29.125 106.454 31.1648H109.194C109.194 28.5327 108.344 26.1679 106.627 24.4586C104.908 22.7473 102.457 21.828 99.5133 21.828V24.568ZM106.454 31.1648V42.5249H109.194V31.1648H106.454ZM107.227 42.5249V35.8367H104.487V42.5249H107.227ZM105.556 34.5002L98.5728 36.0739L99.1751 38.7469L106.158 37.1732L105.556 34.5002ZM98.5687 36.0749C94.9318 36.9062 91.5534 39.1219 91.5534 43.0167H94.2934C94.2934 41.1086 95.9312 39.4884 99.1792 38.746L98.5687 36.0749ZM91.5534 43.0167C91.5534 45.1096 92.4025 46.8775 93.8749 48.0979C95.3222 49.2976 97.2771 49.8947 99.4149 49.8947V47.1547C97.766 47.1547 96.4752 46.6944 95.6234 45.9884C94.7967 45.3032 94.2934 44.3171 94.2934 43.0167H91.5534ZM99.4149 49.8947C103.701 49.8947 107.227 46.8782 107.227 42.5249H104.487C104.487 45.1549 102.407 47.1547 99.4149 47.1547V49.8947ZM130.938 26.6404L129.864 27.4902L132.308 30.5819V26.6404H130.938ZM131.536 41.3938C131.536 45.6534 128.067 49.1218 123.808 49.1218V51.8618C129.58 51.8618 134.276 47.1666 134.276 41.3938H131.536ZM123.808 49.1218C119.548 49.1218 116.08 45.6534 116.08 41.3938H113.34C113.34 47.1666 118.035 51.8618 123.808 51.8618V49.1218ZM116.08 41.3938V32.2959H113.34V41.3938H116.08ZM116.08 32.2959C116.08 28.0364 119.548 24.568 123.808 24.568V21.828C118.035 21.828 113.34 26.5231 113.34 32.2959H116.08ZM123.808 24.568C126.277 24.568 128.443 25.6934 129.864 27.4902L132.013 25.7907C130.09 23.3581 127.141 21.828 123.808 21.828V24.568ZM132.308 26.6404V13.6083H129.568V26.6404H132.308ZM132.308 13.6083C132.308 13.6271 132.304 13.6749 132.277 13.7369C132.25 13.7983 132.209 13.8527 132.162 13.895C132.074 13.9747 131.985 13.9947 131.922 13.9947V11.2547C130.813 11.2547 129.568 12.0801 129.568 13.6083H132.308ZM131.922 13.9947C131.859 13.9947 131.77 13.9747 131.682 13.895C131.635 13.8527 131.594 13.7983 131.567 13.7369C131.54 13.6749 131.536 13.6271 131.536 13.6083H134.276C134.276 12.0801 133.031 11.2547 131.922 11.2547V13.9947ZM131.536 13.6083V41.3938H134.276V13.6083H131.536ZM132.308 41.3938V32.2959H129.568V41.3938H132.308ZM132.308 32.2959C132.308 27.605 128.498 23.7951 123.808 23.7951V26.5351C126.985 26.5351 129.568 29.1183 129.568 32.2959H132.308ZM123.808 23.7951C119.117 23.7951 115.307 27.605 115.307 32.2959H118.047C118.047 29.1183 120.63 26.5351 123.808 26.5351V23.7951ZM115.307 32.2959V41.3938H118.047V32.2959H115.307ZM115.307 41.3938C115.307 46.0847 119.117 49.8947 123.808 49.8947V47.1547C120.63 47.1547 118.047 44.5715 118.047 41.3938H115.307ZM123.808 49.8947C128.498 49.8947 132.308 46.0847 132.308 41.3938H129.568C129.568 44.5715 126.985 47.1547 123.808 47.1547V49.8947ZM156.856 41.3938C156.856 45.6534 153.388 49.1218 149.129 49.1218V51.8618C154.901 51.8618 159.596 47.1666 159.596 41.3938H156.856ZM149.129 49.1218C144.869 49.1218 141.401 45.6534 141.401 41.3938H138.661C138.661 47.1666 143.356 51.8618 149.129 51.8618V49.1218ZM141.401 41.3938V32.2959H138.661V41.3938H141.401ZM141.401 32.2959C141.401 28.0364 144.869 24.568 149.129 24.568V21.828C143.356 21.828 138.661 26.5231 138.661 32.2959H141.401ZM149.129 24.568C153.388 24.568 156.856 28.0364 156.856 32.2959H159.596C159.596 26.5231 154.901 21.828 149.129 21.828V24.568ZM156.856 32.2959V41.3938H159.596V32.2959H156.856ZM157.629 41.3938V32.2959H154.889V41.3938H157.629ZM157.629 32.2959C157.629 27.605 153.819 23.7951 149.129 23.7951V26.5351C152.306 26.5351 154.889 29.1183 154.889 32.2959H157.629ZM149.129 23.7951C144.438 23.7951 140.628 27.605 140.628 32.2959H143.368C143.368 29.1183 145.951 26.5351 149.129 26.5351V23.7951ZM140.628 32.2959V41.3938H143.368V32.2959H140.628ZM140.628 41.3938C140.628 46.0847 144.438 49.8947 149.129 49.8947V47.1547C145.951 47.1547 143.368 44.5715 143.368 41.3938H140.628ZM149.129 49.8947C153.819 49.8947 157.629 46.0847 157.629 41.3938H154.889C154.889 44.5715 152.306 47.1547 149.129 47.1547V49.8947Z" fill="black" mask="url(#path-3-outside-2_2736_11)"/>
</svg>
