<svg width="141" height="29" viewBox="0 0 141 29" fill="none" xmlns="http://www.w3.org/2000/svg">
<mask id="path-1-outside-1_2203_7" maskUnits="userSpaceOnUse" x="-1" y="-1" width="143" height="31" fill="black">
<rect fill="white" x="-1" y="-1" width="143" height="31"/>
<path d="M13.84 27.28V15.04C13.84 11.368 10.852 8.38 7.18 8.38C3.508 8.38 0.52 11.368 0.52 15.04V27.28C0.52 27.748 0.88 28 1.24 28C1.6 28 1.96 27.748 1.96 27.28V15.04C1.96 12.16 4.3 9.82 7.18 9.82C10.06 9.82 12.4 12.16 12.4 15.04V27.28C12.4 27.748 12.76 28 13.12 28C13.48 28 13.84 27.748 13.84 27.28ZM32.0116 21.7V15.04C32.0116 11.368 29.0236 8.38 25.3516 8.38C21.6796 8.38 18.6916 11.368 18.6916 15.04V21.7C18.6916 25.372 21.6796 28.36 25.3516 28.36C29.0236 28.36 32.0116 25.372 32.0116 21.7ZM30.5716 21.7C30.5716 24.58 28.2316 26.92 25.3516 26.92C22.4716 26.92 20.1316 24.58 20.1316 21.7V15.04C20.1316 12.16 22.4716 9.82 25.3516 9.82C28.2316 9.82 30.5716 12.16 30.5716 15.04V21.7ZM59.1916 27.28V14.32C59.1916 11.044 56.5276 8.38 53.2516 8.38C50.9836 8.38 49.0396 9.64 48.0316 11.476C47.0236 9.64 45.0796 8.38 42.8116 8.38C39.5356 8.38 36.8716 11.044 36.8716 14.32V27.28C36.8716 27.748 37.2316 28 37.5916 28C37.9516 28 38.3116 27.748 38.3116 27.28V14.32C38.3116 11.836 40.3276 9.82 42.8116 9.82C45.2956 9.82 47.3116 11.836 47.3116 14.32V27.28C47.3116 27.784 47.6716 28.036 48.0316 28.036C48.3916 28.036 48.7516 27.784 48.7516 27.28V14.32C48.7516 11.836 50.7676 9.82 53.2516 9.82C55.7356 9.82 57.7516 11.836 57.7516 14.32V27.28C57.7516 27.748 58.1116 28 58.4716 28C58.8316 28 59.1916 27.748 59.1916 27.28ZM75.8511 22.528V14.212C75.8511 10.792 73.6551 8.38 69.7671 8.38C67.9311 8.38 66.0951 8.992 64.8351 10.468C64.6551 10.684 64.4031 10.972 64.4031 11.296C64.4031 11.692 64.7631 11.98 65.1231 11.98C65.9151 11.98 66.4191 9.82 69.7671 9.82C72.8631 9.82 74.4111 11.584 74.4111 14.212V16.156L69.0831 17.308C66.0951 17.956 63.5031 19.684 63.5031 22.888C63.5031 26.416 66.4191 28.36 69.6951 28.36C73.0431 28.36 75.8511 25.984 75.8511 22.528ZM74.4111 22.528C74.4111 25.084 72.3591 26.92 69.6951 26.92C66.9231 26.92 64.9431 25.372 64.9431 22.888C64.9431 20.764 66.7791 19.36 69.2991 18.784L74.4111 17.632V22.528ZM93.8514 21.7V1.36C93.8514 0.891999 93.4914 0.639998 93.1314 0.639998C92.7714 0.639998 92.4114 0.891999 92.4114 1.36V10.9C91.1874 9.352 89.3154 8.38 87.1914 8.38C83.5194 8.38 80.5314 11.368 80.5314 15.04V21.7C80.5314 25.372 83.5194 28.36 87.1914 28.36C90.8634 28.36 93.8514 25.372 93.8514 21.7ZM92.4114 21.7C92.4114 24.58 90.0714 26.92 87.1914 26.92C84.3114 26.92 81.9714 24.58 81.9714 21.7V15.04C81.9714 12.16 84.3114 9.82 87.1914 9.82C90.0714 9.82 92.4114 12.16 92.4114 15.04V21.7ZM112.027 21.7V15.04C112.027 11.368 109.039 8.38 105.367 8.38C101.695 8.38 98.7072 11.368 98.7072 15.04V21.7C98.7072 25.372 101.695 28.36 105.367 28.36C109.039 28.36 112.027 25.372 112.027 21.7ZM110.587 21.7C110.587 24.58 108.247 26.92 105.367 26.92C102.487 26.92 100.147 24.58 100.147 21.7V15.04C100.147 12.16 102.487 9.82 105.367 9.82C108.247 9.82 110.587 12.16 110.587 15.04V21.7ZM140.287 27.28V1.432C140.287 0.891999 139.963 0.603999 139.603 0.603999C139.351 0.603999 139.063 0.783998 138.919 1.144L128.767 25.408L118.615 1.144C118.471 0.783998 118.183 0.603999 117.931 0.603999C117.571 0.603999 117.247 0.891999 117.247 1.432V27.28C117.247 27.748 117.607 28 117.967 28C118.327 28 118.687 27.748 118.687 27.28V5.032L128.119 27.568C128.263 27.928 128.515 28.108 128.767 28.108C129.019 28.108 129.271 27.928 129.415 27.568L138.847 5.032V27.28C138.847 27.748 139.207 28 139.567 28C139.927 28 140.287 27.748 140.287 27.28Z"/>
</mask>
<path d="M13.84 27.28V15.04C13.84 11.368 10.852 8.38 7.18 8.38C3.508 8.38 0.52 11.368 0.52 15.04V27.28C0.52 27.748 0.88 28 1.24 28C1.6 28 1.96 27.748 1.96 27.28V15.04C1.96 12.16 4.3 9.82 7.18 9.82C10.06 9.82 12.4 12.16 12.4 15.04V27.28C12.4 27.748 12.76 28 13.12 28C13.48 28 13.84 27.748 13.84 27.28ZM32.0116 21.7V15.04C32.0116 11.368 29.0236 8.38 25.3516 8.38C21.6796 8.38 18.6916 11.368 18.6916 15.04V21.7C18.6916 25.372 21.6796 28.36 25.3516 28.36C29.0236 28.36 32.0116 25.372 32.0116 21.7ZM30.5716 21.7C30.5716 24.58 28.2316 26.92 25.3516 26.92C22.4716 26.92 20.1316 24.58 20.1316 21.7V15.04C20.1316 12.16 22.4716 9.82 25.3516 9.82C28.2316 9.82 30.5716 12.16 30.5716 15.04V21.7ZM59.1916 27.28V14.32C59.1916 11.044 56.5276 8.38 53.2516 8.38C50.9836 8.38 49.0396 9.64 48.0316 11.476C47.0236 9.64 45.0796 8.38 42.8116 8.38C39.5356 8.38 36.8716 11.044 36.8716 14.32V27.28C36.8716 27.748 37.2316 28 37.5916 28C37.9516 28 38.3116 27.748 38.3116 27.28V14.32C38.3116 11.836 40.3276 9.82 42.8116 9.82C45.2956 9.82 47.3116 11.836 47.3116 14.32V27.28C47.3116 27.784 47.6716 28.036 48.0316 28.036C48.3916 28.036 48.7516 27.784 48.7516 27.28V14.32C48.7516 11.836 50.7676 9.82 53.2516 9.82C55.7356 9.82 57.7516 11.836 57.7516 14.32V27.28C57.7516 27.748 58.1116 28 58.4716 28C58.8316 28 59.1916 27.748 59.1916 27.28ZM75.8511 22.528V14.212C75.8511 10.792 73.6551 8.38 69.7671 8.38C67.9311 8.38 66.0951 8.992 64.8351 10.468C64.6551 10.684 64.4031 10.972 64.4031 11.296C64.4031 11.692 64.7631 11.98 65.1231 11.98C65.9151 11.98 66.4191 9.82 69.7671 9.82C72.8631 9.82 74.4111 11.584 74.4111 14.212V16.156L69.0831 17.308C66.0951 17.956 63.5031 19.684 63.5031 22.888C63.5031 26.416 66.4191 28.36 69.6951 28.36C73.0431 28.36 75.8511 25.984 75.8511 22.528ZM74.4111 22.528C74.4111 25.084 72.3591 26.92 69.6951 26.92C66.9231 26.92 64.9431 25.372 64.9431 22.888C64.9431 20.764 66.7791 19.36 69.2991 18.784L74.4111 17.632V22.528ZM93.8514 21.7V1.36C93.8514 0.891999 93.4914 0.639998 93.1314 0.639998C92.7714 0.639998 92.4114 0.891999 92.4114 1.36V10.9C91.1874 9.352 89.3154 8.38 87.1914 8.38C83.5194 8.38 80.5314 11.368 80.5314 15.04V21.7C80.5314 25.372 83.5194 28.36 87.1914 28.36C90.8634 28.36 93.8514 25.372 93.8514 21.7ZM92.4114 21.7C92.4114 24.58 90.0714 26.92 87.1914 26.92C84.3114 26.92 81.9714 24.58 81.9714 21.7V15.04C81.9714 12.16 84.3114 9.82 87.1914 9.82C90.0714 9.82 92.4114 12.16 92.4114 15.04V21.7ZM112.027 21.7V15.04C112.027 11.368 109.039 8.38 105.367 8.38C101.695 8.38 98.7072 11.368 98.7072 15.04V21.7C98.7072 25.372 101.695 28.36 105.367 28.36C109.039 28.36 112.027 25.372 112.027 21.7ZM110.587 21.7C110.587 24.58 108.247 26.92 105.367 26.92C102.487 26.92 100.147 24.58 100.147 21.7V15.04C100.147 12.16 102.487 9.82 105.367 9.82C108.247 9.82 110.587 12.16 110.587 15.04V21.7ZM140.287 27.28V1.432C140.287 0.891999 139.963 0.603999 139.603 0.603999C139.351 0.603999 139.063 0.783998 138.919 1.144L128.767 25.408L118.615 1.144C118.471 0.783998 118.183 0.603999 117.931 0.603999C117.571 0.603999 117.247 0.891999 117.247 1.432V27.28C117.247 27.748 117.607 28 117.967 28C118.327 28 118.687 27.748 118.687 27.28V5.032L128.119 27.568C128.263 27.928 128.515 28.108 128.767 28.108C129.019 28.108 129.271 27.928 129.415 27.568L138.847 5.032V27.28C138.847 27.748 139.207 28 139.567 28C139.927 28 140.287 27.748 140.287 27.28Z" fill="white"/>
<path d="M14.84 27.28V15.04H12.84V27.28H14.84ZM14.84 15.04C14.84 10.8157 11.4043 7.38 7.18 7.38V9.38C10.2997 9.38 12.84 11.9203 12.84 15.04H14.84ZM7.18 7.38C2.95572 7.38 -0.48 10.8157 -0.48 15.04H1.52C1.52 11.9203 4.06029 9.38 7.18 9.38V7.38ZM-0.48 15.04V27.28H1.52V15.04H-0.48ZM-0.48 27.28C-0.48 28.3968 0.429428 29 1.24 29V27C1.28526 27 1.34977 27.0144 1.41396 27.0722C1.44809 27.1029 1.47748 27.1424 1.49711 27.187C1.5169 27.232 1.52 27.2666 1.52 27.28H-0.48ZM1.24 29C2.05057 29 2.96 28.3968 2.96 27.28H0.96C0.96 27.2666 0.963099 27.232 0.982895 27.187C1.00252 27.1424 1.03191 27.1029 1.06604 27.0722C1.13023 27.0144 1.19474 27 1.24 27V29ZM2.96 27.28V15.04H0.96V27.28H2.96ZM2.96 15.04C2.96 12.7123 4.85228 10.82 7.18 10.82V8.82C3.74772 8.82 0.96 11.6077 0.96 15.04H2.96ZM7.18 10.82C9.50772 10.82 11.4 12.7123 11.4 15.04H13.4C13.4 11.6077 10.6123 8.82 7.18 8.82V10.82ZM11.4 15.04V27.28H13.4V15.04H11.4ZM11.4 27.28C11.4 28.3968 12.3094 29 13.12 29V27C13.1653 27 13.2298 27.0144 13.294 27.0722C13.3281 27.1029 13.3575 27.1424 13.3771 27.187C13.3969 27.232 13.4 27.2666 13.4 27.28H11.4ZM13.12 29C13.9306 29 14.84 28.3968 14.84 27.28H12.84C12.84 27.2666 12.8431 27.232 12.8629 27.187C12.8825 27.1424 12.9119 27.1029 12.946 27.0722C13.0102 27.0144 13.0747 27 13.12 27V29ZM33.0116 21.7V15.04H31.0116V21.7H33.0116ZM33.0116 15.04C33.0116 10.8157 29.5758 7.38 25.3516 7.38V9.38C28.4713 9.38 31.0116 11.9203 31.0116 15.04H33.0116ZM25.3516 7.38C21.1273 7.38 17.6916 10.8157 17.6916 15.04H19.6916C19.6916 11.9203 22.2318 9.38 25.3516 9.38V7.38ZM17.6916 15.04V21.7H19.6916V15.04H17.6916ZM17.6916 21.7C17.6916 25.9243 21.1273 29.36 25.3516 29.36V27.36C22.2318 27.36 19.6916 24.8197 19.6916 21.7H17.6916ZM25.3516 29.36C29.5758 29.36 33.0116 25.9243 33.0116 21.7H31.0116C31.0116 24.8197 28.4713 27.36 25.3516 27.36V29.36ZM29.5716 21.7C29.5716 24.0277 27.6793 25.92 25.3516 25.92V27.92C28.7838 27.92 31.5716 25.1323 31.5716 21.7H29.5716ZM25.3516 25.92C23.0238 25.92 21.1316 24.0277 21.1316 21.7H19.1316C19.1316 25.1323 21.9193 27.92 25.3516 27.92V25.92ZM21.1316 21.7V15.04H19.1316V21.7H21.1316ZM21.1316 15.04C21.1316 12.7123 23.0238 10.82 25.3516 10.82V8.82C21.9193 8.82 19.1316 11.6077 19.1316 15.04H21.1316ZM25.3516 10.82C27.6793 10.82 29.5716 12.7123 29.5716 15.04H31.5716C31.5716 11.6077 28.7838 8.82 25.3516 8.82V10.82ZM29.5716 15.04V21.7H31.5716V15.04H29.5716ZM48.0316 11.476L47.155 11.9573L48.0316 13.5539L48.9081 11.9573L48.0316 11.476ZM60.1916 27.28V14.32H58.1916V27.28H60.1916ZM60.1916 14.32C60.1916 10.4917 57.0798 7.38 53.2516 7.38V9.38C55.9753 9.38 58.1916 11.5963 58.1916 14.32H60.1916ZM53.2516 7.38C50.6003 7.38 48.3296 8.85522 47.155 10.9947L48.9081 11.9573C49.7495 10.4248 51.3669 9.38 53.2516 9.38V7.38ZM48.9081 10.9947C47.7335 8.85522 45.4629 7.38 42.8116 7.38V9.38C44.6963 9.38 46.3136 10.4248 47.155 11.9573L48.9081 10.9947ZM42.8116 7.38C38.9833 7.38 35.8716 10.4917 35.8716 14.32H37.8716C37.8716 11.5963 40.0878 9.38 42.8116 9.38V7.38ZM35.8716 14.32V27.28H37.8716V14.32H35.8716ZM35.8716 27.28C35.8716 28.3968 36.781 29 37.5916 29V27C37.6368 27 37.7013 27.0144 37.7655 27.0722C37.7997 27.1029 37.829 27.1424 37.8487 27.187C37.8685 27.232 37.8716 27.2666 37.8716 27.28H35.8716ZM37.5916 29C38.4021 29 39.3116 28.3968 39.3116 27.28H37.3116C37.3116 27.2666 37.3147 27.232 37.3345 27.187C37.3541 27.1424 37.3835 27.1029 37.4176 27.0722C37.4818 27.0144 37.5463 27 37.5916 27V29ZM39.3116 27.28V14.32H37.3116V27.28H39.3116ZM39.3116 14.32C39.3116 12.3883 40.8798 10.82 42.8116 10.82V8.82C39.7753 8.82 37.3116 11.2837 37.3116 14.32H39.3116ZM42.8116 10.82C44.7433 10.82 46.3116 12.3883 46.3116 14.32H48.3116C48.3116 11.2837 45.8478 8.82 42.8116 8.82V10.82ZM46.3116 14.32V27.28H48.3116V14.32H46.3116ZM46.3116 27.28C46.3116 27.7868 46.5008 28.2482 46.8542 28.5781C47.193 28.8942 47.6249 29.036 48.0316 29.036V27.036C48.0782 27.036 48.1501 27.0518 48.2189 27.1159C48.2544 27.1491 48.2807 27.1881 48.2965 27.2261C48.3122 27.2638 48.3116 27.2856 48.3116 27.28H46.3116ZM48.0316 29.036C48.4382 29.036 48.8701 28.8942 49.2089 28.5781C49.5623 28.2482 49.7516 27.7868 49.7516 27.28H47.7516C47.7516 27.2856 47.7509 27.2638 47.7666 27.2261C47.7825 27.1881 47.8088 27.1491 47.8442 27.1159C47.913 27.0518 47.9849 27.036 48.0316 27.036V29.036ZM49.7516 27.28V14.32H47.7516V27.28H49.7516ZM49.7516 14.32C49.7516 12.3883 51.3198 10.82 53.2516 10.82V8.82C50.2153 8.82 47.7516 11.2837 47.7516 14.32H49.7516ZM53.2516 10.82C55.1833 10.82 56.7516 12.3883 56.7516 14.32H58.7516C58.7516 11.2837 56.2878 8.82 53.2516 8.82V10.82ZM56.7516 14.32V27.28H58.7516V14.32H56.7516ZM56.7516 27.28C56.7516 28.3968 57.661 29 58.4716 29V27C58.5168 27 58.5813 27.0144 58.6455 27.0722C58.6797 27.1029 58.709 27.1424 58.7287 27.187C58.7485 27.232 58.7516 27.2666 58.7516 27.28H56.7516ZM58.4716 29C59.2821 29 60.1916 28.3968 60.1916 27.28H58.1916C58.1916 27.2666 58.1947 27.232 58.2145 27.187C58.2341 27.1424 58.2635 27.1029 58.2976 27.0722C58.3618 27.0144 58.4263 27 58.4716 27V29ZM64.8351 10.468L64.0745 9.81869L64.0669 9.82781L64.8351 10.468ZM74.4111 16.156L74.6225 17.1334L75.4111 16.9629V16.156H74.4111ZM69.0831 17.308L68.8718 16.3306L68.8712 16.3307L69.0831 17.308ZM69.2991 18.784L69.0793 17.8085L69.0763 17.8091L69.2991 18.784ZM74.4111 17.632H75.4111V16.3816L74.1913 16.6565L74.4111 17.632ZM76.8511 22.528V14.212H74.8511V22.528H76.8511ZM76.8511 14.212C76.8511 12.2859 76.2288 10.5555 74.9727 9.30485C73.7151 8.05276 71.9215 7.38 69.7671 7.38V9.38C71.5008 9.38 72.7491 9.91323 73.5616 10.7221C74.3755 11.5325 74.8511 12.7181 74.8511 14.212H76.8511ZM69.7671 7.38C67.7199 7.38 65.5717 8.06491 64.0746 9.81874L65.5957 11.1173C66.6185 9.91909 68.1423 9.38 69.7671 9.38V7.38ZM64.0669 9.82781C63.993 9.91655 63.8308 10.104 63.699 10.3189C63.5653 10.5372 63.4031 10.8752 63.4031 11.296H65.4031C65.4031 11.3928 65.367 11.4248 65.4042 11.3641C65.4201 11.3382 65.4436 11.3047 65.4787 11.2598C65.5158 11.2125 65.552 11.1698 65.6033 11.1082L64.0669 9.82781ZM63.4031 11.296C63.4031 12.3408 64.3126 12.98 65.1231 12.98V10.98C65.2019 10.98 65.2574 11.0075 65.2971 11.0432C65.3444 11.0858 65.4031 11.1745 65.4031 11.296H63.4031ZM65.1231 12.98C65.7697 12.98 66.2178 12.5432 66.4046 12.3639C66.6881 12.0917 66.8366 11.9117 67.1294 11.666C67.6102 11.2626 68.3499 10.82 69.7671 10.82V8.82C67.8363 8.82 66.6501 9.45738 65.8438 10.134C65.4931 10.4282 65.1579 10.7883 65.0195 10.9211C64.7844 11.1468 64.8725 10.98 65.1231 10.98V12.98ZM69.7671 10.82C71.1267 10.82 72.0061 11.2038 72.5451 11.7397C73.0848 12.2763 73.4111 13.0924 73.4111 14.212H75.4111C75.4111 12.7036 74.9634 11.3237 73.9552 10.3213C72.9462 9.3182 71.5036 8.82 69.7671 8.82V10.82ZM73.4111 14.212V16.156H75.4111V14.212H73.4111ZM74.1998 15.1786L68.8718 16.3306L69.2945 18.2854L74.6225 17.1334L74.1998 15.1786ZM68.8712 16.3307C67.2705 16.6779 65.6969 17.3291 64.506 18.3941C63.2888 19.4826 62.5031 20.9801 62.5031 22.888H64.5031C64.5031 21.5919 65.0134 20.6234 65.8392 19.8849C66.6914 19.1229 67.9078 18.5861 69.2951 18.2853L68.8712 16.3307ZM62.5031 22.888C62.5031 24.9565 63.3704 26.6079 64.7392 27.7225C66.0865 28.8195 67.8697 29.36 69.6951 29.36V27.36C68.2446 27.36 66.9317 26.9285 66.002 26.1715C65.0938 25.4321 64.5031 24.3475 64.5031 22.888H62.5031ZM69.6951 29.36C73.5107 29.36 76.8511 26.6174 76.8511 22.528H74.8511C74.8511 25.3506 72.5756 27.36 69.6951 27.36V29.36ZM73.4111 22.528C73.4111 24.4551 71.8867 25.92 69.6951 25.92V27.92C72.8315 27.92 75.4111 25.7129 75.4111 22.528H73.4111ZM69.6951 25.92C68.4876 25.92 67.5419 25.5829 66.9178 25.0656C66.3119 24.5634 65.9431 23.8408 65.9431 22.888H63.9431C63.9431 24.4192 64.5643 25.7126 65.6415 26.6054C66.7003 27.4831 68.1307 27.92 69.6951 27.92V25.92ZM65.9431 22.888C65.9431 21.4891 67.1439 20.3024 69.5219 19.7589L69.0763 17.8091C66.4144 18.4176 63.9431 20.0389 63.9431 22.888H65.9431ZM69.519 19.7595L74.631 18.6075L74.1913 16.6565L69.0793 17.8085L69.519 19.7595ZM73.4111 17.632V22.528H75.4111V17.632H73.4111ZM92.4114 10.9L91.627 11.5202L93.4114 13.777V10.9H92.4114ZM94.8514 21.7V1.36H92.8514V21.7H94.8514ZM94.8514 1.36C94.8514 0.243217 93.942 -0.360002 93.1314 -0.360002V1.64C93.0862 1.64 93.0216 1.62557 92.9574 1.56779C92.9233 1.53708 92.8939 1.49757 92.8743 1.45299C92.8545 1.40803 92.8514 1.37339 92.8514 1.36H94.8514ZM93.1314 -0.360002C92.3208 -0.360002 91.4114 0.243217 91.4114 1.36H93.4114C93.4114 1.37339 93.4083 1.40803 93.3885 1.45299C93.3689 1.49757 93.3395 1.53708 93.3054 1.56779C93.2412 1.62557 93.1767 1.64 93.1314 1.64V-0.360002ZM91.4114 1.36V10.9H93.4114V1.36H91.4114ZM93.1958 10.2798C91.7883 8.4997 89.631 7.38 87.1914 7.38V9.38C88.9998 9.38 90.5865 10.2043 91.627 11.5202L93.1958 10.2798ZM87.1914 7.38C82.9671 7.38 79.5314 10.8157 79.5314 15.04H81.5314C81.5314 11.9203 84.0717 9.38 87.1914 9.38V7.38ZM79.5314 15.04V21.7H81.5314V15.04H79.5314ZM79.5314 21.7C79.5314 25.9243 82.9671 29.36 87.1914 29.36V27.36C84.0717 27.36 81.5314 24.8197 81.5314 21.7H79.5314ZM87.1914 29.36C91.4157 29.36 94.8514 25.9243 94.8514 21.7H92.8514C92.8514 24.8197 90.3111 27.36 87.1914 27.36V29.36ZM91.4114 21.7C91.4114 24.0277 89.5191 25.92 87.1914 25.92V27.92C90.6237 27.92 93.4114 25.1323 93.4114 21.7H91.4114ZM87.1914 25.92C84.8637 25.92 82.9714 24.0277 82.9714 21.7H80.9714C80.9714 25.1323 83.7591 27.92 87.1914 27.92V25.92ZM82.9714 21.7V15.04H80.9714V21.7H82.9714ZM82.9714 15.04C82.9714 12.7123 84.8637 10.82 87.1914 10.82V8.82C83.7591 8.82 80.9714 11.6077 80.9714 15.04H82.9714ZM87.1914 10.82C89.5191 10.82 91.4114 12.7123 91.4114 15.04H93.4114C93.4114 11.6077 90.6237 8.82 87.1914 8.82V10.82ZM91.4114 15.04V21.7H93.4114V15.04H91.4114ZM113.027 21.7V15.04H111.027V21.7H113.027ZM113.027 15.04C113.027 10.8157 109.591 7.38 105.367 7.38V9.38C108.487 9.38 111.027 11.9203 111.027 15.04H113.027ZM105.367 7.38C101.143 7.38 97.7072 10.8157 97.7072 15.04H99.7072C99.7072 11.9203 102.247 9.38 105.367 9.38V7.38ZM97.7072 15.04V21.7H99.7072V15.04H97.7072ZM97.7072 21.7C97.7072 25.9243 101.143 29.36 105.367 29.36V27.36C102.247 27.36 99.7072 24.8197 99.7072 21.7H97.7072ZM105.367 29.36C109.591 29.36 113.027 25.9243 113.027 21.7H111.027C111.027 24.8197 108.487 27.36 105.367 27.36V29.36ZM109.587 21.7C109.587 24.0277 107.695 25.92 105.367 25.92V27.92C108.799 27.92 111.587 25.1323 111.587 21.7H109.587ZM105.367 25.92C103.039 25.92 101.147 24.0277 101.147 21.7H99.1472C99.1472 25.1323 101.935 27.92 105.367 27.92V25.92ZM101.147 21.7V15.04H99.1472V21.7H101.147ZM101.147 15.04C101.147 12.7123 103.039 10.82 105.367 10.82V8.82C101.935 8.82 99.1472 11.6077 99.1472 15.04H101.147ZM105.367 10.82C107.695 10.82 109.587 12.7123 109.587 15.04H111.587C111.587 11.6077 108.799 8.82 105.367 8.82V10.82ZM109.587 15.04V21.7H111.587V15.04H109.587ZM138.919 1.144L139.842 1.52997L139.845 1.52271L139.848 1.51539L138.919 1.144ZM128.767 25.408L127.845 25.794L128.767 27.9988L129.69 25.794L128.767 25.408ZM118.615 1.144L117.687 1.51539L117.69 1.52271L117.693 1.52997L118.615 1.144ZM118.687 5.032L119.61 4.64592L117.687 5.032H118.687ZM128.119 27.568L129.048 27.1966L129.045 27.1892L129.042 27.1819L128.119 27.568ZM129.415 27.568L128.493 27.1819L128.49 27.1892L128.487 27.1966L129.415 27.568ZM138.847 5.032H139.847L137.925 4.64592L138.847 5.032ZM141.287 27.28V1.432H139.287V27.28H141.287ZM141.287 1.432C141.287 0.9602 141.143 0.499904 140.822 0.145213C140.501 -0.210324 140.058 -0.396002 139.603 -0.396002V1.604C139.509 1.604 139.407 1.56232 139.338 1.48578C139.27 1.41009 139.287 1.3638 139.287 1.432H141.287ZM139.603 -0.396002C138.876 -0.396002 138.26 0.0983105 137.991 0.772607L139.848 1.51539C139.866 1.46969 139.826 1.604 139.603 1.604V-0.396002ZM137.997 0.758022L127.845 25.022L129.69 25.794L139.842 1.52997L137.997 0.758022ZM129.69 25.022L119.538 0.758022L117.693 1.52997L127.845 25.794L129.69 25.022ZM119.544 0.772607C119.274 0.0983086 118.658 -0.396002 117.931 -0.396002V1.604C117.708 1.604 117.668 1.46969 117.687 1.51539L119.544 0.772607ZM117.931 -0.396002C117.477 -0.396002 117.033 -0.210325 116.712 0.145213C116.392 0.499905 116.247 0.9602 116.247 1.432H118.247C118.247 1.3638 118.265 1.41009 118.196 1.48578C118.127 1.56232 118.026 1.604 117.931 1.604V-0.396002ZM116.247 1.432V27.28H118.247V1.432H116.247ZM116.247 27.28C116.247 28.3968 117.157 29 117.967 29V27C118.012 27 118.077 27.0144 118.141 27.0722C118.175 27.1029 118.205 27.1424 118.224 27.187C118.244 27.232 118.247 27.2666 118.247 27.28H116.247ZM117.967 29C118.778 29 119.687 28.3968 119.687 27.28H117.687C117.687 27.2666 117.69 27.232 117.71 27.187C117.73 27.1424 117.759 27.1029 117.793 27.0722C117.857 27.0144 117.922 27 117.967 27V29ZM119.687 27.28V5.032H117.687V27.28H119.687ZM117.765 5.41808L127.197 27.9541L129.042 27.1819L119.61 4.64592L117.765 5.41808ZM127.191 27.9394C127.436 28.5532 127.986 29.108 128.767 29.108V27.108C128.888 27.108 128.979 27.1532 129.027 27.1921C129.073 27.2282 129.067 27.2455 129.048 27.1966L127.191 27.9394ZM128.767 29.108C129.549 29.108 130.098 28.5532 130.344 27.9394L128.487 27.1966C128.467 27.2455 128.462 27.2282 128.507 27.1921C128.556 27.1532 128.646 27.108 128.767 27.108V29.108ZM130.338 27.9541L139.77 5.41808L137.925 4.64592L128.493 27.1819L130.338 27.9541ZM137.847 5.032V27.28H139.847V5.032H137.847ZM137.847 27.28C137.847 28.3968 138.757 29 139.567 29V27C139.612 27 139.677 27.0144 139.741 27.0722C139.775 27.1029 139.805 27.1424 139.824 27.187C139.844 27.232 139.847 27.2666 139.847 27.28H137.847ZM139.567 29C140.378 29 141.287 28.3968 141.287 27.28H139.287C139.287 27.2666 139.29 27.232 139.31 27.187C139.33 27.1424 139.359 27.1029 139.393 27.0722C139.457 27.0144 139.522 27 139.567 27V29Z" fill="white" mask="url(#path-1-outside-1_2203_7)"/>
</svg>
