<svg width="195" height="39" viewBox="0 0 195 39" fill="none" xmlns="http://www.w3.org/2000/svg">
<mask id="path-1-outside-1_2748_8" maskUnits="userSpaceOnUse" x="-1" y="-1" width="197" height="41" fill="black">
<rect fill="white" x="-1" y="-1" width="197" height="41"/>
<path d="M18.6383 37.0164C18.6383 37.6558 18.1466 38 17.6548 38C17.163 38 16.6712 37.6558 16.6712 37.0164V20.2959C16.6712 16.3617 13.4746 13.1651 9.5404 13.1651C5.60616 13.1651 2.40958 16.3617 2.40958 20.2959V37.0164C2.40958 37.6558 1.9178 38 1.42602 38C0.934243 38 0.442462 37.6558 0.442462 37.0164V20.2959C0.442462 15.2798 4.52424 11.198 9.5404 11.198C14.5566 11.198 18.6383 15.2798 18.6383 20.2959V37.0164ZM43.9535 29.3938C43.9535 34.41 39.8717 38.4918 34.8556 38.4918C29.8394 38.4918 25.7576 34.41 25.7576 29.3938V20.2959C25.7576 15.2798 29.8394 11.198 34.8556 11.198C39.8717 11.198 43.9535 15.2798 43.9535 20.2959V29.3938ZM41.9864 29.3938V20.2959C41.9864 16.3617 38.7898 13.1651 34.8556 13.1651C30.9213 13.1651 27.7247 16.3617 27.7247 20.2959V29.3938C27.7247 33.3281 30.9213 36.5247 34.8556 36.5247C38.7898 36.5247 41.9864 33.3281 41.9864 29.3938ZM81.5747 37.0164C81.5747 37.6558 81.0829 38 80.5911 38C80.0993 38 79.6076 37.6558 79.6076 37.0164V19.3123C79.6076 15.9191 76.8536 13.1651 73.4603 13.1651C70.067 13.1651 67.3131 15.9191 67.3131 19.3123V37.0164C67.3131 37.7049 66.8213 38.0492 66.3295 38.0492C65.8377 38.0492 65.3459 37.7049 65.3459 37.0164V19.3123C65.3459 15.9191 62.592 13.1651 59.1987 13.1651C55.8054 13.1651 53.0514 15.9191 53.0514 19.3123V37.0164C53.0514 37.6558 52.5596 38 52.0679 38C51.5761 38 51.0843 37.6558 51.0843 37.0164V19.3123C51.0843 14.8371 54.7235 11.198 59.1987 11.198C62.2969 11.198 64.9525 12.9192 66.3295 15.4273C67.7065 12.9192 70.3621 11.198 73.4603 11.198C77.9355 11.198 81.5747 14.8371 81.5747 19.3123V37.0164ZM104.824 30.5249C104.824 35.246 100.988 38.4918 96.4149 38.4918C91.9397 38.4918 87.9563 35.8362 87.9563 31.0167C87.9563 26.6399 91.4971 24.2793 95.5789 23.3941L102.857 21.8204V19.1648C102.857 15.5748 100.743 13.1651 96.5133 13.1651C91.9397 13.1651 91.2512 16.1158 90.1693 16.1158C89.6775 16.1158 89.1858 15.7224 89.1858 15.1814C89.1858 14.7388 89.53 14.3454 89.7759 14.0503C91.4971 12.034 94.0052 11.198 96.5133 11.198C101.825 11.198 104.824 14.4929 104.824 19.1648V30.5249ZM102.857 30.5249V23.8367L95.874 25.4104C92.4315 26.1973 89.9234 28.1152 89.9234 31.0167C89.9234 34.41 92.6282 36.5247 96.4149 36.5247C100.054 36.5247 102.857 34.0166 102.857 30.5249ZM129.906 29.3938C129.906 34.41 125.824 38.4918 120.808 38.4918C115.791 38.4918 111.71 34.41 111.71 29.3938V20.2959C111.71 15.2798 115.791 11.198 120.808 11.198C123.709 11.198 126.266 12.5258 127.938 14.6404V1.60826C127.938 0.968944 128.43 0.624696 128.922 0.624696C129.414 0.624696 129.906 0.968944 129.906 1.60826V29.3938ZM127.938 29.3938V20.2959C127.938 16.3617 124.742 13.1651 120.808 13.1651C116.873 13.1651 113.677 16.3617 113.677 20.2959V29.3938C113.677 33.3281 116.873 36.5247 120.808 36.5247C124.742 36.5247 127.938 33.3281 127.938 29.3938ZM155.226 29.3938C155.226 34.41 151.145 38.4918 146.129 38.4918C141.112 38.4918 137.031 34.41 137.031 29.3938V20.2959C137.031 15.2798 141.112 11.198 146.129 11.198C151.145 11.198 155.226 15.2798 155.226 20.2959V29.3938ZM153.259 29.3938V20.2959C153.259 16.3617 150.063 13.1651 146.129 13.1651C142.194 13.1651 138.998 16.3617 138.998 20.2959V29.3938C138.998 33.3281 142.194 36.5247 146.129 36.5247C150.063 36.5247 153.259 33.3281 153.259 29.3938ZM194.323 37.0164C194.323 37.6558 193.831 38 193.339 38C192.848 38 192.356 37.6558 192.356 37.0164V6.62442L179.471 37.4099C179.275 37.9016 178.93 38.1475 178.586 38.1475C178.242 38.1475 177.898 37.9016 177.701 37.4099L164.816 6.62442V37.0164C164.816 37.6558 164.324 38 163.833 38C163.341 38 162.849 37.6558 162.849 37.0164V1.70661C162.849 0.968944 163.292 0.575519 163.783 0.575519C164.128 0.575519 164.521 0.821409 164.718 1.31319L178.586 34.4592L192.454 1.31319C192.651 0.821409 193.044 0.575519 193.389 0.575519C193.88 0.575519 194.323 0.968944 194.323 1.70661V37.0164Z"/>
</mask>
<path d="M18.6383 37.0164C18.6383 37.6558 18.1466 38 17.6548 38C17.163 38 16.6712 37.6558 16.6712 37.0164V20.2959C16.6712 16.3617 13.4746 13.1651 9.5404 13.1651C5.60616 13.1651 2.40958 16.3617 2.40958 20.2959V37.0164C2.40958 37.6558 1.9178 38 1.42602 38C0.934243 38 0.442462 37.6558 0.442462 37.0164V20.2959C0.442462 15.2798 4.52424 11.198 9.5404 11.198C14.5566 11.198 18.6383 15.2798 18.6383 20.2959V37.0164ZM43.9535 29.3938C43.9535 34.41 39.8717 38.4918 34.8556 38.4918C29.8394 38.4918 25.7576 34.41 25.7576 29.3938V20.2959C25.7576 15.2798 29.8394 11.198 34.8556 11.198C39.8717 11.198 43.9535 15.2798 43.9535 20.2959V29.3938ZM41.9864 29.3938V20.2959C41.9864 16.3617 38.7898 13.1651 34.8556 13.1651C30.9213 13.1651 27.7247 16.3617 27.7247 20.2959V29.3938C27.7247 33.3281 30.9213 36.5247 34.8556 36.5247C38.7898 36.5247 41.9864 33.3281 41.9864 29.3938ZM81.5747 37.0164C81.5747 37.6558 81.0829 38 80.5911 38C80.0993 38 79.6076 37.6558 79.6076 37.0164V19.3123C79.6076 15.9191 76.8536 13.1651 73.4603 13.1651C70.067 13.1651 67.3131 15.9191 67.3131 19.3123V37.0164C67.3131 37.7049 66.8213 38.0492 66.3295 38.0492C65.8377 38.0492 65.3459 37.7049 65.3459 37.0164V19.3123C65.3459 15.9191 62.592 13.1651 59.1987 13.1651C55.8054 13.1651 53.0514 15.9191 53.0514 19.3123V37.0164C53.0514 37.6558 52.5596 38 52.0679 38C51.5761 38 51.0843 37.6558 51.0843 37.0164V19.3123C51.0843 14.8371 54.7235 11.198 59.1987 11.198C62.2969 11.198 64.9525 12.9192 66.3295 15.4273C67.7065 12.9192 70.3621 11.198 73.4603 11.198C77.9355 11.198 81.5747 14.8371 81.5747 19.3123V37.0164ZM104.824 30.5249C104.824 35.246 100.988 38.4918 96.4149 38.4918C91.9397 38.4918 87.9563 35.8362 87.9563 31.0167C87.9563 26.6399 91.4971 24.2793 95.5789 23.3941L102.857 21.8204V19.1648C102.857 15.5748 100.743 13.1651 96.5133 13.1651C91.9397 13.1651 91.2512 16.1158 90.1693 16.1158C89.6775 16.1158 89.1858 15.7224 89.1858 15.1814C89.1858 14.7388 89.53 14.3454 89.7759 14.0503C91.4971 12.034 94.0052 11.198 96.5133 11.198C101.825 11.198 104.824 14.4929 104.824 19.1648V30.5249ZM102.857 30.5249V23.8367L95.874 25.4104C92.4315 26.1973 89.9234 28.1152 89.9234 31.0167C89.9234 34.41 92.6282 36.5247 96.4149 36.5247C100.054 36.5247 102.857 34.0166 102.857 30.5249ZM129.906 29.3938C129.906 34.41 125.824 38.4918 120.808 38.4918C115.791 38.4918 111.71 34.41 111.71 29.3938V20.2959C111.71 15.2798 115.791 11.198 120.808 11.198C123.709 11.198 126.266 12.5258 127.938 14.6404V1.60826C127.938 0.968944 128.43 0.624696 128.922 0.624696C129.414 0.624696 129.906 0.968944 129.906 1.60826V29.3938ZM127.938 29.3938V20.2959C127.938 16.3617 124.742 13.1651 120.808 13.1651C116.873 13.1651 113.677 16.3617 113.677 20.2959V29.3938C113.677 33.3281 116.873 36.5247 120.808 36.5247C124.742 36.5247 127.938 33.3281 127.938 29.3938ZM155.226 29.3938C155.226 34.41 151.145 38.4918 146.129 38.4918C141.112 38.4918 137.031 34.41 137.031 29.3938V20.2959C137.031 15.2798 141.112 11.198 146.129 11.198C151.145 11.198 155.226 15.2798 155.226 20.2959V29.3938ZM153.259 29.3938V20.2959C153.259 16.3617 150.063 13.1651 146.129 13.1651C142.194 13.1651 138.998 16.3617 138.998 20.2959V29.3938C138.998 33.3281 142.194 36.5247 146.129 36.5247C150.063 36.5247 153.259 33.3281 153.259 29.3938ZM194.323 37.0164C194.323 37.6558 193.831 38 193.339 38C192.848 38 192.356 37.6558 192.356 37.0164V6.62442L179.471 37.4099C179.275 37.9016 178.93 38.1475 178.586 38.1475C178.242 38.1475 177.898 37.9016 177.701 37.4099L164.816 6.62442V37.0164C164.816 37.6558 164.324 38 163.833 38C163.341 38 162.849 37.6558 162.849 37.0164V1.70661C162.849 0.968944 163.292 0.575519 163.783 0.575519C164.128 0.575519 164.521 0.821409 164.718 1.31319L178.586 34.4592L192.454 1.31319C192.651 0.821409 193.044 0.575519 193.389 0.575519C193.88 0.575519 194.323 0.968944 194.323 1.70661V37.0164Z" fill="white"/>
<path d="M17.2683 37.0164C17.2683 36.9976 17.2727 36.9498 17.2999 36.8878C17.327 36.8264 17.3675 36.772 17.4145 36.7296C17.503 36.65 17.5921 36.63 17.6548 36.63V39.37C18.7638 39.37 20.0083 38.5446 20.0083 37.0164H17.2683ZM17.6548 36.63C17.7175 36.63 17.8066 36.65 17.8951 36.7296C17.9421 36.772 17.9826 36.8264 18.0096 36.8878C18.0369 36.9498 18.0412 36.9976 18.0412 37.0164H15.3012C15.3012 38.5446 16.5457 39.37 17.6548 39.37V36.63ZM18.0412 37.0164V20.2959H15.3012V37.0164H18.0412ZM18.0412 20.2959C18.0412 15.605 14.2313 11.7951 9.5404 11.7951V14.5351C12.718 14.5351 15.3012 17.1183 15.3012 20.2959H18.0412ZM9.5404 11.7951C4.84953 11.7951 1.03958 15.605 1.03958 20.2959H3.77958C3.77958 17.1183 6.36279 14.5351 9.5404 14.5351V11.7951ZM1.03958 20.2959V37.0164H3.77958V20.2959H1.03958ZM1.03958 37.0164C1.03958 36.9976 1.04392 36.9498 1.07119 36.8878C1.09824 36.8264 1.13872 36.772 1.18574 36.7296C1.27422 36.65 1.36331 36.63 1.42602 36.63V39.37C2.53509 39.37 3.77958 38.5446 3.77958 37.0164H1.03958ZM1.42602 36.63C1.48873 36.63 1.57782 36.65 1.66631 36.7296C1.71333 36.772 1.75381 36.8264 1.78085 36.8878C1.80813 36.9498 1.81246 36.9976 1.81246 37.0164H-0.927538C-0.927538 38.5446 0.316958 39.37 1.42602 39.37V36.63ZM1.81246 37.0164V20.2959H-0.927538V37.0164H1.81246ZM1.81246 20.2959C1.81246 16.0364 5.28087 12.568 9.5404 12.568V9.82797C3.76761 9.82797 -0.927538 14.5231 -0.927538 20.2959H1.81246ZM9.5404 12.568C13.7999 12.568 17.2683 16.0364 17.2683 20.2959H20.0083C20.0083 14.5231 15.3132 9.82797 9.5404 9.82797V12.568ZM17.2683 20.2959V37.0164H20.0083V20.2959H17.2683ZM42.5835 29.3938C42.5835 33.6534 39.1151 37.1218 34.8556 37.1218V39.8618C40.6283 39.8618 45.3235 35.1666 45.3235 29.3938H42.5835ZM34.8556 37.1218C30.596 37.1218 27.1276 33.6534 27.1276 29.3938H24.3876C24.3876 35.1666 29.0828 39.8618 34.8556 39.8618V37.1218ZM27.1276 29.3938V20.2959H24.3876V29.3938H27.1276ZM27.1276 20.2959C27.1276 16.0364 30.596 12.568 34.8556 12.568V9.82797C29.0828 9.82797 24.3876 14.5231 24.3876 20.2959H27.1276ZM34.8556 12.568C39.1151 12.568 42.5835 16.0364 42.5835 20.2959H45.3235C45.3235 14.5231 40.6283 9.82797 34.8556 9.82797V12.568ZM42.5835 20.2959V29.3938H45.3235V20.2959H42.5835ZM43.3564 29.3938V20.2959H40.6164V29.3938H43.3564ZM43.3564 20.2959C43.3564 15.605 39.5464 11.7951 34.8556 11.7951V14.5351C38.0332 14.5351 40.6164 17.1183 40.6164 20.2959H43.3564ZM34.8556 11.7951C30.1647 11.7951 26.3547 15.605 26.3547 20.2959H29.0947C29.0947 17.1183 31.6779 14.5351 34.8556 14.5351V11.7951ZM26.3547 20.2959V29.3938H29.0947V20.2959H26.3547ZM26.3547 29.3938C26.3547 34.0847 30.1647 37.8947 34.8556 37.8947V35.1547C31.6779 35.1547 29.0947 32.5715 29.0947 29.3938H26.3547ZM34.8556 37.8947C39.5464 37.8947 43.3564 34.0847 43.3564 29.3938H40.6164C40.6164 32.5715 38.0332 35.1547 34.8556 35.1547V37.8947ZM66.3295 15.4273L65.1286 16.0866L66.3295 18.274L67.5304 16.0866L66.3295 15.4273ZM80.2047 37.0164C80.2047 36.9976 80.209 36.9498 80.2363 36.8878C80.2633 36.8264 80.3038 36.772 80.3508 36.7296C80.4393 36.65 80.5284 36.63 80.5911 36.63V39.37C81.7002 39.37 82.9447 38.5446 82.9447 37.0164H80.2047ZM80.5911 36.63C80.6538 36.63 80.7429 36.65 80.8314 36.7297C80.8784 36.772 80.9189 36.8264 80.946 36.8878C80.9732 36.9498 80.9776 36.9976 80.9776 37.0164H78.2376C78.2376 38.5446 79.4821 39.37 80.5911 39.37V36.63ZM80.9776 37.0164V19.3123H78.2376V37.0164H80.9776ZM80.9776 19.3123C80.9776 15.1624 77.6102 11.7951 73.4603 11.7951V14.5351C76.097 14.5351 78.2376 16.6757 78.2376 19.3123H80.9776ZM73.4603 11.7951C69.3104 11.7951 65.9431 15.1624 65.9431 19.3123H68.6831C68.6831 16.6757 70.8237 14.5351 73.4603 14.5351V11.7951ZM65.9431 19.3123V37.0164H68.6831V19.3123H65.9431ZM65.9431 37.0164C65.9431 37.0236 65.9423 36.9933 65.9639 36.9413C65.9858 36.8889 66.022 36.8351 66.0709 36.7894C66.1656 36.701 66.2648 36.6792 66.3295 36.6792V39.4192C66.8859 39.4192 67.4769 39.2252 67.9405 38.7925C68.4242 38.3411 68.6831 37.7097 68.6831 37.0164H65.9431ZM66.3295 36.6792C66.3941 36.6792 66.4933 36.701 66.5881 36.7894C66.637 36.8351 66.6732 36.8889 66.6951 36.9413C66.7167 36.9933 66.7159 37.0236 66.7159 37.0164H63.9759C63.9759 37.7097 64.2348 38.3411 64.7185 38.7925C65.1821 39.2252 65.7731 39.4192 66.3295 39.4192V36.6792ZM66.7159 37.0164V19.3123H63.9759V37.0164H66.7159ZM66.7159 19.3123C66.7159 15.1624 63.3486 11.7951 59.1987 11.7951V14.5351C61.8353 14.5351 63.9759 16.6757 63.9759 19.3123H66.7159ZM59.1987 11.7951C55.0488 11.7951 51.6814 15.1624 51.6814 19.3123H54.4214C54.4214 16.6757 56.562 14.5351 59.1987 14.5351V11.7951ZM51.6814 19.3123V37.0164H54.4214V19.3123H51.6814ZM51.6814 37.0164C51.6814 36.9976 51.6858 36.9498 51.713 36.8878C51.7401 36.8264 51.7806 36.772 51.8276 36.7296C51.9161 36.65 52.0052 36.63 52.0679 36.63V39.37C53.1769 39.37 54.4214 38.5446 54.4214 37.0164H51.6814ZM52.0679 36.63C52.1306 36.63 52.2197 36.65 52.3082 36.7296C52.3552 36.772 52.3957 36.8264 52.4227 36.8878C52.45 36.9498 52.4543 36.9976 52.4543 37.0164H49.7143C49.7143 38.5446 50.9588 39.37 52.0679 39.37V36.63ZM52.4543 37.0164V19.3123H49.7143V37.0164H52.4543ZM52.4543 19.3123C52.4543 15.5938 55.4801 12.568 59.1987 12.568V9.82797C53.9669 9.82797 49.7143 14.0805 49.7143 19.3123H52.4543ZM59.1987 12.568C61.7718 12.568 63.9799 13.9943 65.1286 16.0866L67.5304 14.768C65.9251 11.8441 62.822 9.82797 59.1987 9.82797V12.568ZM67.5304 16.0866C68.6791 13.9943 70.8872 12.568 73.4603 12.568V9.82797C69.837 9.82797 66.7339 11.8441 65.1286 14.768L67.5304 16.0866ZM73.4603 12.568C77.1789 12.568 80.2047 15.5938 80.2047 19.3123H82.9447C82.9447 14.0805 78.6921 9.82797 73.4603 9.82797V12.568ZM80.2047 19.3123V37.0164H82.9447V19.3123H80.2047ZM95.5789 23.3941L95.2894 22.0551L95.2885 22.0552L95.5789 23.3941ZM102.857 21.8204L103.147 23.1595L104.227 22.9259V21.8204H102.857ZM89.7759 14.0503L88.7339 13.1608L88.7286 13.167L88.7234 13.1732L89.7759 14.0503ZM102.857 23.8367H104.227V22.1236L102.556 22.5002L102.857 23.8367ZM95.874 25.4104L95.5728 24.0739L95.5687 24.0749L95.874 25.4104ZM103.454 30.5249C103.454 34.3783 100.348 37.1218 96.4149 37.1218V39.8618C101.629 39.8618 106.194 36.1138 106.194 30.5249H103.454ZM96.4149 37.1218C94.4341 37.1218 92.6416 36.5326 91.3724 35.4992C90.1327 34.4898 89.3263 33.0093 89.3263 31.0167H86.5863C86.5863 33.8436 87.7716 36.1007 89.6424 37.6239C91.4837 39.1232 93.9205 39.8618 96.4149 39.8618V37.1218ZM89.3263 31.0167C89.3263 29.2474 90.0228 27.9254 91.1502 26.9173C92.3136 25.8769 93.9746 25.1439 95.8693 24.733L95.2885 22.0552C93.1014 22.5296 90.9511 23.4195 89.3237 24.8748C87.6602 26.3625 86.5863 28.4092 86.5863 31.0167H89.3263ZM95.8684 24.7332L103.147 23.1595L102.568 20.4814L95.2894 22.0551L95.8684 24.7332ZM104.227 21.8204V19.1648H101.487V21.8204H104.227ZM104.227 19.1648C104.227 17.1035 103.615 15.2174 102.237 13.8471C100.858 12.4759 98.8861 11.7951 96.5133 11.7951V14.5351C98.3698 14.5351 99.57 15.0592 100.305 15.7903C101.042 16.5224 101.487 17.6362 101.487 19.1648H104.227ZM96.5133 11.7951C93.8747 11.7951 92.2533 12.6662 91.1513 13.591C90.6721 13.9931 90.2138 14.4852 90.0251 14.6664C89.7038 14.9748 89.8252 14.7458 90.1693 14.7458V17.4858C91.0544 17.4858 91.6675 16.8879 91.9226 16.643C92.3102 16.271 92.5127 16.0255 92.9126 15.6899C93.5686 15.1394 94.5783 14.5351 96.5133 14.5351V11.7951ZM90.1693 14.7458C90.278 14.7458 90.3547 14.7837 90.4096 14.8331C90.475 14.892 90.5558 15.0141 90.5558 15.1814H87.8158C87.8158 16.6112 89.0602 17.4858 90.1693 17.4858V14.7458ZM90.5558 15.1814C90.5558 15.3146 90.506 15.3591 90.5567 15.2764C90.5782 15.2413 90.6102 15.1956 90.6582 15.1344C90.7088 15.0699 90.7582 15.0116 90.8283 14.9274L88.7234 13.1732C88.6225 13.2944 88.4007 13.5507 88.2205 13.8446C88.0376 14.1431 87.8158 14.6056 87.8158 15.1814H90.5558ZM90.8179 14.9398C92.2142 13.3041 94.2945 12.568 96.5133 12.568V9.82797C93.7159 9.82797 90.7801 10.7639 88.7339 13.1608L90.8179 14.9398ZM96.5133 12.568C98.8807 12.568 100.585 13.2961 101.694 14.4003C102.805 15.5064 103.454 17.125 103.454 19.1648H106.194C106.194 16.5327 105.344 14.1679 103.627 12.4586C101.908 10.7473 99.4571 9.82797 96.5133 9.82797V12.568ZM103.454 19.1648V30.5249H106.194V19.1648H103.454ZM104.227 30.5249V23.8367H101.487V30.5249H104.227ZM102.556 22.5002L95.5728 24.0739L96.1751 26.7469L103.158 25.1732L102.556 22.5002ZM95.5687 24.0749C91.9318 24.9062 88.5534 27.1219 88.5534 31.0167H91.2934C91.2934 29.1086 92.9312 27.4884 96.1792 26.746L95.5687 24.0749ZM88.5534 31.0167C88.5534 33.1096 89.4025 34.8775 90.8749 36.0979C92.3222 37.2976 94.2771 37.8947 96.4149 37.8947V35.1547C94.766 35.1547 93.4752 34.6944 92.6234 33.9884C91.7967 33.3032 91.2934 32.3171 91.2934 31.0167H88.5534ZM96.4149 37.8947C100.701 37.8947 104.227 34.8782 104.227 30.5249H101.487C101.487 33.1549 99.4069 35.1547 96.4149 35.1547V37.8947ZM127.938 14.6404L126.864 15.4902L129.308 18.5819V14.6404H127.938ZM128.536 29.3938C128.536 33.6534 125.067 37.1218 120.808 37.1218V39.8618C126.58 39.8618 131.276 35.1666 131.276 29.3938H128.536ZM120.808 37.1218C116.548 37.1218 113.08 33.6534 113.08 29.3938H110.34C110.34 35.1666 115.035 39.8618 120.808 39.8618V37.1218ZM113.08 29.3938V20.2959H110.34V29.3938H113.08ZM113.08 20.2959C113.08 16.0364 116.548 12.568 120.808 12.568V9.82797C115.035 9.82797 110.34 14.5231 110.34 20.2959H113.08ZM120.808 12.568C123.277 12.568 125.443 13.6934 126.864 15.4902L129.013 13.7907C127.09 11.3581 124.141 9.82797 120.808 9.82797V12.568ZM129.308 14.6404V1.60826H126.568V14.6404H129.308ZM129.308 1.60826C129.308 1.62706 129.304 1.67493 129.277 1.73688C129.25 1.79831 129.209 1.85273 129.162 1.89505C129.074 1.97468 128.985 1.9947 128.922 1.9947V-0.745304C127.813 -0.745304 126.568 0.0801111 126.568 1.60826H129.308ZM128.922 1.9947C128.859 1.9947 128.77 1.97468 128.682 1.89505C128.635 1.85273 128.594 1.79831 128.567 1.73688C128.54 1.67493 128.536 1.62706 128.536 1.60826H131.276C131.276 0.0801111 130.031 -0.745304 128.922 -0.745304V1.9947ZM128.536 1.60826V29.3938H131.276V1.60826H128.536ZM129.308 29.3938V20.2959H126.568V29.3938H129.308ZM129.308 20.2959C129.308 15.605 125.498 11.7951 120.808 11.7951V14.5351C123.985 14.5351 126.568 17.1183 126.568 20.2959H129.308ZM120.808 11.7951C116.117 11.7951 112.307 15.605 112.307 20.2959H115.047C115.047 17.1183 117.63 14.5351 120.808 14.5351V11.7951ZM112.307 20.2959V29.3938H115.047V20.2959H112.307ZM112.307 29.3938C112.307 34.0847 116.117 37.8947 120.808 37.8947V35.1547C117.63 35.1547 115.047 32.5715 115.047 29.3938H112.307ZM120.808 37.8947C125.498 37.8947 129.308 34.0847 129.308 29.3938H126.568C126.568 32.5715 123.985 35.1547 120.808 35.1547V37.8947ZM153.856 29.3938C153.856 33.6534 150.388 37.1218 146.129 37.1218V39.8618C151.901 39.8618 156.596 35.1666 156.596 29.3938H153.856ZM146.129 37.1218C141.869 37.1218 138.401 33.6534 138.401 29.3938H135.661C135.661 35.1666 140.356 39.8618 146.129 39.8618V37.1218ZM138.401 29.3938V20.2959H135.661V29.3938H138.401ZM138.401 20.2959C138.401 16.0364 141.869 12.568 146.129 12.568V9.82797C140.356 9.82797 135.661 14.5231 135.661 20.2959H138.401ZM146.129 12.568C150.388 12.568 153.856 16.0364 153.856 20.2959H156.596C156.596 14.5231 151.901 9.82797 146.129 9.82797V12.568ZM153.856 20.2959V29.3938H156.596V20.2959H153.856ZM154.629 29.3938V20.2959H151.889V29.3938H154.629ZM154.629 20.2959C154.629 15.605 150.819 11.7951 146.129 11.7951V14.5351C149.306 14.5351 151.889 17.1183 151.889 20.2959H154.629ZM146.129 11.7951C141.438 11.7951 137.628 15.605 137.628 20.2959H140.368C140.368 17.1183 142.951 14.5351 146.129 14.5351V11.7951ZM137.628 20.2959V29.3938H140.368V20.2959H137.628ZM137.628 29.3938C137.628 34.0847 141.438 37.8947 146.129 37.8947V35.1547C142.951 35.1547 140.368 32.5715 140.368 29.3938H137.628ZM146.129 37.8947C150.819 37.8947 154.629 34.0847 154.629 29.3938H151.889C151.889 32.5715 149.306 35.1547 146.129 35.1547V37.8947ZM192.356 6.62442H193.726L191.092 6.09549L192.356 6.62442ZM179.471 37.4099L178.207 36.8809L178.203 36.891L178.199 36.9011L179.471 37.4099ZM177.701 37.4099L178.973 36.9011L178.969 36.891L178.965 36.8809L177.701 37.4099ZM164.816 6.62442L166.08 6.09549L163.446 6.62442H164.816ZM164.718 1.31319L163.446 1.82199L163.45 1.83202L163.454 1.84198L164.718 1.31319ZM178.586 34.4592L177.322 34.988L178.586 38.0086L179.85 34.988L178.586 34.4592ZM192.454 1.31319L193.718 1.84198L193.722 1.83202L193.726 1.822L192.454 1.31319ZM192.953 37.0164C192.953 36.9976 192.957 36.9498 192.985 36.8878C193.012 36.8264 193.052 36.772 193.099 36.7297C193.188 36.65 193.277 36.63 193.339 36.63V39.37C194.449 39.37 195.693 38.5446 195.693 37.0164H192.953ZM193.339 36.63C193.402 36.63 193.491 36.65 193.58 36.7296C193.627 36.772 193.667 36.8264 193.694 36.8878C193.722 36.9498 193.726 36.9976 193.726 37.0164H190.986C190.986 38.5446 192.23 39.37 193.339 39.37V36.63ZM193.726 37.0164V6.62442H190.986V37.0164H193.726ZM191.092 6.09549L178.207 36.8809L180.735 37.9388L193.62 7.15335L191.092 6.09549ZM178.199 36.9011C178.173 36.9673 178.166 36.9431 178.228 36.8933C178.295 36.8396 178.42 36.7775 178.586 36.7775V39.5175C179.656 39.5175 180.407 38.7582 180.743 37.9187L178.199 36.9011ZM178.586 36.7775C178.752 36.7775 178.877 36.8396 178.944 36.8933C179.006 36.9431 178.999 36.9673 178.973 36.9011L176.429 37.9187C176.765 38.7581 177.517 39.5175 178.586 39.5175V36.7775ZM178.965 36.8809L166.08 6.09549L163.552 7.15335L176.437 37.9388L178.965 36.8809ZM163.446 6.62442V37.0164H166.186V6.62442H163.446ZM163.446 37.0164C163.446 36.9976 163.451 36.9498 163.478 36.8878C163.505 36.8264 163.545 36.772 163.592 36.7296C163.681 36.65 163.77 36.63 163.833 36.63V39.37C164.942 39.37 166.186 38.5446 166.186 37.0164H163.446ZM163.833 36.63C163.895 36.63 163.984 36.65 164.073 36.7296C164.12 36.772 164.16 36.8264 164.187 36.8878C164.215 36.9498 164.219 36.9976 164.219 37.0164H161.479C161.479 38.5446 162.724 39.37 163.833 39.37V36.63ZM164.219 37.0164V1.70661H161.479V37.0164H164.219ZM164.219 1.70661C164.219 1.61424 164.243 1.67848 164.149 1.78273C164.053 1.88814 163.914 1.94552 163.783 1.94552V-0.794481C163.161 -0.794481 162.555 -0.540389 162.115 -0.0538518C161.677 0.431525 161.479 1.06132 161.479 1.70661H164.219ZM163.783 1.94552C163.477 1.94552 163.421 1.7608 163.446 1.82199L165.99 0.804383C165.621 -0.117986 164.778 -0.794481 163.783 -0.794481V1.94552ZM163.454 1.84198L177.322 34.988L179.85 33.9304L165.982 0.784402L163.454 1.84198ZM179.85 34.988L193.718 1.84198L191.19 0.784402L177.322 33.9304L179.85 34.988ZM193.726 1.822C193.751 1.7608 193.695 1.94552 193.389 1.94552V-0.794481C192.394 -0.794481 191.551 -0.117984 191.182 0.804382L193.726 1.822ZM193.389 1.94552C193.258 1.94552 193.119 1.88814 193.024 1.78273C192.929 1.67848 192.953 1.61424 192.953 1.70661H195.693C195.693 1.06131 195.495 0.431525 195.057 -0.0538518C194.617 -0.540388 194.011 -0.794481 193.389 -0.794481V1.94552ZM192.953 1.70661V37.0164H195.693V1.70661H192.953Z" fill="white" mask="url(#path-1-outside-1_2748_8)"/>
</svg>
