<svg width="705" height="61" viewBox="0 0 705 61" fill="none" xmlns="http://www.w3.org/2000/svg">
<path d="M26.0644 13.6083C26.0644 14.1 25.7201 14.5918 25.0808 14.5918H14.2616V49.0164C14.2616 49.6558 13.7698 50 13.2781 50C12.7863 50 12.2945 49.6558 12.2945 49.0164V14.5918H1.47534C0.836027 14.5918 0.49178 14.1 0.49178 13.6083C0.49178 13.1165 0.836027 12.6247 1.47534 12.6247H25.0808C25.7201 12.6247 26.0644 13.1165 26.0644 13.6083ZM53.8519 49.0164C53.8519 49.5082 53.5076 50 52.8683 50H34.4265C33.8856 50 33.443 49.5574 33.443 49.0164V13.6083C33.443 13.0673 33.8856 12.6247 34.4265 12.6247H52.8683C53.5076 12.6247 53.8519 13.1165 53.8519 13.6083C53.8519 14.1 53.5076 14.5918 52.8683 14.5918H35.4101V29.4436H51.393C52.0323 29.4436 52.3765 29.9354 52.3765 30.4271C52.3765 30.9189 52.0323 31.4107 51.393 31.4107H35.4101V48.0329H52.8683C53.5076 48.0329 53.8519 48.5247 53.8519 49.0164ZM85.1744 45.3773C85.1744 45.574 85.1252 45.7707 84.9285 45.9674C84.9285 45.9674 84.6826 46.3116 84.1909 46.7543C81.5844 49.2132 77.9944 50.4918 74.4044 50.4918C67.667 50.4918 62.2083 45.033 62.2083 38.2956V24.3291C62.2083 17.5917 67.667 12.1329 74.4044 12.1329C77.9453 12.1329 82.6172 13.7066 84.9285 16.6573C85.0761 16.854 85.1744 17.0507 85.1744 17.2474C85.1744 17.7884 84.6335 18.231 84.1417 18.231C83.8466 18.231 83.6007 18.0835 83.3548 17.8376C83.3548 17.8376 83.2073 17.6409 82.8631 17.2966C80.6009 15.182 77.5027 14.1 74.4044 14.1C68.749 14.1 64.1754 18.6736 64.1754 24.3291V38.2956C64.1754 43.9511 68.749 48.5247 74.4044 48.5247C77.4535 48.5247 81.3385 47.246 83.3548 44.7871C83.5515 44.5412 83.8466 44.3937 84.1417 44.3937C84.6826 44.3937 85.1744 44.8363 85.1744 45.3773ZM117.934 49.0164C117.934 49.6558 117.443 50 116.951 50C116.459 50 115.967 49.6558 115.967 49.0164V30.8206H96.4927V49.0164C96.4927 49.6558 96.0009 50 95.5091 50C95.0173 50 94.5256 49.6558 94.5256 49.0164V13.6083C94.5256 12.9689 95.0173 12.6247 95.5091 12.6247C96.0009 12.6247 96.4927 12.9689 96.4927 13.6083V28.8534H115.967V13.6083C115.967 12.9689 116.459 12.6247 116.951 12.6247C117.443 12.6247 117.934 12.9689 117.934 13.6083V49.0164ZM152.15 49.0164C152.15 49.7541 151.756 50.1475 151.264 50.1475C150.969 50.1475 150.576 49.9508 150.33 49.5082L130.708 17.1491V49.0164C130.708 49.6558 130.216 50 129.724 50C129.233 50 128.741 49.6558 128.741 49.0164V13.6083C128.741 12.8706 129.134 12.4772 129.626 12.4772C129.921 12.4772 130.314 12.6739 130.56 13.1165L150.182 45.4756V13.6083C150.182 12.9689 150.674 12.6247 151.166 12.6247C151.658 12.6247 152.15 12.9689 152.15 13.6083V49.0164ZM186.365 38.2956C186.365 45.033 180.906 50.4918 174.169 50.4918C167.431 50.4918 161.972 45.033 161.972 38.2956V24.3291C161.972 17.5917 167.431 12.1329 174.169 12.1329C180.906 12.1329 186.365 17.5917 186.365 24.3291V38.2956ZM184.398 38.2956V24.3291C184.398 18.6736 179.824 14.1 174.169 14.1C168.513 14.1 163.94 18.6736 163.94 24.3291V38.2956C163.94 43.9511 168.513 48.5247 174.169 48.5247C179.824 48.5247 184.398 43.9511 184.398 38.2956ZM216.62 49.0164C216.62 49.5082 216.275 50 215.636 50H197.194C196.653 50 196.211 49.5574 196.211 49.0164V13.6083C196.211 12.9689 196.703 12.6247 197.194 12.6247C197.686 12.6247 198.178 12.9689 198.178 13.6083V48.0329H215.636C216.275 48.0329 216.62 48.5247 216.62 49.0164ZM248.408 38.2956C248.408 45.033 242.949 50.4918 236.212 50.4918C229.474 50.4918 224.016 45.033 224.016 38.2956V24.3291C224.016 17.5917 229.474 12.1329 236.212 12.1329C242.949 12.1329 248.408 17.5917 248.408 24.3291V38.2956ZM246.441 38.2956V24.3291C246.441 18.6736 241.867 14.1 236.212 14.1C230.556 14.1 225.983 18.6736 225.983 24.3291V38.2956C225.983 43.9511 230.556 48.5247 236.212 48.5247C241.867 48.5247 246.441 43.9511 246.441 38.2956ZM281.663 38.2956C281.663 45.033 276.204 50.4918 269.466 50.4918C262.729 50.4918 257.27 45.033 257.27 38.2956V24.3291C257.27 17.5917 262.729 12.1329 269.466 12.1329C273.007 12.1329 277.679 13.7066 279.99 16.6573C280.138 16.854 280.236 17.0507 280.236 17.2474C280.236 17.7884 279.695 18.231 279.204 18.231C278.614 18.231 278.318 17.6409 277.925 17.2966C275.663 15.182 272.565 14.1 269.466 14.1C263.811 14.1 259.237 18.6736 259.237 24.3291V38.2956C259.237 43.9511 263.811 48.5247 269.466 48.5247C275.122 48.5247 279.695 43.9511 279.695 38.2956V32.4926H269.86C269.221 32.4926 268.876 32.0008 268.876 31.5091C268.876 31.0173 269.221 30.5255 269.86 30.5255H280.679C281.22 30.5255 281.663 30.9681 281.663 31.5091V38.2956ZM307.245 49.0164C307.245 49.5082 306.901 50 306.262 50H290.525C289.886 50 289.541 49.5082 289.541 49.0164C289.541 48.5247 289.886 48.0329 290.525 48.0329H297.41V14.5918H290.525C289.886 14.5918 289.541 14.1 289.541 13.6083C289.541 13.1165 289.886 12.6247 290.525 12.6247H306.262C306.901 12.6247 307.245 13.1165 307.245 13.6083C307.245 14.1 306.901 14.5918 306.262 14.5918H299.377V48.0329H306.262C306.901 48.0329 307.245 48.5247 307.245 49.0164ZM336.528 49.0164C336.528 49.5082 336.183 50 335.544 50H317.102C316.561 50 316.119 49.5574 316.119 49.0164V13.6083C316.119 13.0673 316.561 12.6247 317.102 12.6247H335.544C336.183 12.6247 336.528 13.1165 336.528 13.6083C336.528 14.1 336.183 14.5918 335.544 14.5918H318.086V29.4436H334.069C334.708 29.4436 335.052 29.9354 335.052 30.4271C335.052 30.9189 334.708 31.4107 334.069 31.4107H318.086V48.0329H335.544C336.183 48.0329 336.528 48.5247 336.528 49.0164ZM367.014 40.607C367.014 46.7051 361.506 50.4918 354.965 50.4918C351.621 50.4918 347.097 49.0656 345.081 46.1149C344.933 45.9182 344.884 45.7215 344.884 45.5248C344.884 44.9838 345.376 44.5412 345.868 44.5412C346.163 44.5412 346.458 44.6888 346.654 44.9838C346.654 44.9838 346.802 45.1806 347.097 45.4756C349.113 47.5411 352.113 48.5247 354.965 48.5247C360.916 48.5247 365.047 45.1806 365.047 40.607C365.047 29.3452 345.081 33.427 345.081 21.3292C345.081 15.5262 350.146 12.1329 355.457 12.1329C359.146 12.1329 363.473 14.1 365.735 17.1491C365.883 17.3458 365.932 17.5425 365.932 17.7392C365.932 18.2802 365.49 18.7228 364.949 18.7228C364.654 18.7228 364.408 18.6244 364.162 18.3293C364.162 18.3293 363.965 18.0835 363.621 17.69C361.506 15.5262 358.555 14.1 355.457 14.1C350.835 14.1 347.048 16.9524 347.048 21.3292C347.048 31.4599 367.014 27.5256 367.014 40.607ZM423.104 49.0164C423.104 49.6558 422.612 50 422.12 50C421.629 50 421.137 49.6558 421.137 49.0164V18.6244L408.252 49.4099C408.055 49.9016 407.711 50.1475 407.367 50.1475C407.023 50.1475 406.678 49.9016 406.482 49.4099L393.597 18.6244V49.0164C393.597 49.6558 393.105 50 392.614 50C392.122 50 391.63 49.6558 391.63 49.0164V13.7066C391.63 12.9689 392.073 12.5755 392.564 12.5755C392.909 12.5755 393.302 12.8214 393.499 13.3132L407.367 46.4592L421.235 13.3132C421.432 12.8214 421.825 12.5755 422.17 12.5755C422.661 12.5755 423.104 12.9689 423.104 13.7066V49.0164ZM457.322 38.2956C457.322 45.033 451.863 50.4918 445.126 50.4918C438.389 50.4918 432.93 45.033 432.93 38.2956V24.3291C432.93 17.5917 438.389 12.1329 445.126 12.1329C451.863 12.1329 457.322 17.5917 457.322 24.3291V38.2956ZM455.355 38.2956V24.3291C455.355 18.6736 450.782 14.1 445.126 14.1C439.471 14.1 434.897 18.6736 434.897 24.3291V38.2956C434.897 43.9511 439.471 48.5247 445.126 48.5247C450.782 48.5247 455.355 43.9511 455.355 38.2956ZM490.577 37.8038C490.577 44.5412 485.118 50 478.381 50H468.152C467.611 50 467.168 49.5574 467.168 49.0164V13.6083C467.168 13.0673 467.611 12.6247 468.152 12.6247H478.381C485.118 12.6247 490.577 18.0835 490.577 24.8208V37.8038ZM488.61 37.8038V24.8208C488.61 19.1654 484.036 14.5918 478.381 14.5918H469.135V48.0329H478.381C484.036 48.0329 488.61 43.4593 488.61 37.8038ZM524.564 38.2956C524.564 45.033 519.105 50.4918 512.367 50.4918C505.63 50.4918 500.171 45.033 500.171 38.2956V13.6083C500.171 12.9689 500.663 12.6247 501.155 12.6247C501.647 12.6247 502.138 12.9689 502.138 13.6083V38.2956C502.138 43.9511 506.712 48.5247 512.367 48.5247C518.023 48.5247 522.596 43.9511 522.596 38.2956V13.6083C522.596 12.9689 523.088 12.6247 523.58 12.6247C524.072 12.6247 524.564 12.9689 524.564 13.6083V38.2956ZM555.287 49.0164C555.287 49.5082 554.943 50 554.304 50H535.862C535.321 50 534.878 49.5574 534.878 49.0164V13.6083C534.878 12.9689 535.37 12.6247 535.862 12.6247C536.354 12.6247 536.845 12.9689 536.845 13.6083V48.0329H554.304C554.943 48.0329 555.287 48.5247 555.287 49.0164ZM586.78 49.0656C586.78 49.6558 586.289 50 585.797 50C585.403 50 585.01 49.8033 584.862 49.3115L581.076 37.9022H566.962L563.126 49.3115C562.978 49.8033 562.585 50 562.191 50C561.7 50 561.208 49.6558 561.208 49.0656C561.208 48.9181 561.257 48.7214 561.257 48.7214L573.06 13.3132C573.256 12.7722 573.65 12.4772 573.994 12.4772C574.387 12.4772 574.732 12.7722 574.928 13.3132L586.731 48.7214C586.731 48.7214 586.78 48.8689 586.78 49.0656ZM580.387 35.9351L573.994 16.7065L567.601 35.9351H580.387ZM610.881 49.0164C610.881 49.5082 610.537 50 609.898 50H594.161C593.522 50 593.177 49.5082 593.177 49.0164C593.177 48.5247 593.522 48.0329 594.161 48.0329H601.046V14.5918H594.161C593.522 14.5918 593.177 14.1 593.177 13.6083C593.177 13.1165 593.522 12.6247 594.161 12.6247H609.898C610.537 12.6247 610.881 13.1165 610.881 13.6083C610.881 14.1 610.537 14.5918 609.898 14.5918H603.013V48.0329H609.898C610.537 48.0329 610.881 48.5247 610.881 49.0164ZM641.295 49.0164C641.295 49.5574 640.803 50 640.262 50C639.967 50 639.672 49.9016 639.475 49.5574L630.869 35.9843C630.525 36.0334 629.885 36.0826 629.393 36.0826H621.722V49.0164C621.722 49.6558 621.23 50 620.738 50C620.246 50 619.755 49.6558 619.755 49.0164V13.6083C619.755 13.0673 620.197 12.6247 620.738 12.6247H629.492C635.983 12.6247 641.245 17.8376 641.245 24.3291C641.245 29.5911 637.705 34.0663 632.934 35.5417L641.147 48.4755C641.245 48.6722 641.295 48.8689 641.295 49.0164ZM621.722 34.1155H629.492C634.901 34.1155 639.278 29.7387 639.278 24.3291C639.278 18.9195 634.901 14.5918 629.492 14.5918H621.722V34.1155ZM671.065 49.0164C671.065 49.5082 670.721 50 670.081 50H651.64C651.099 50 650.656 49.5574 650.656 49.0164V13.6083C650.656 13.0673 651.099 12.6247 651.64 12.6247H670.081C670.721 12.6247 671.065 13.1165 671.065 13.6083C671.065 14.1 670.721 14.5918 670.081 14.5918H652.623V29.4436H668.606C669.245 29.4436 669.59 29.9354 669.59 30.4271C669.59 30.9189 669.245 31.4107 668.606 31.4107H652.623V48.0329H670.081C670.721 48.0329 671.065 48.5247 671.065 49.0164ZM701.551 40.607C701.551 46.7051 696.044 50.4918 689.503 50.4918C686.159 50.4918 681.634 49.0656 679.618 46.1149C679.471 45.9182 679.421 45.7215 679.421 45.5248C679.421 44.9838 679.913 44.5412 680.405 44.5412C680.7 44.5412 680.995 44.6888 681.192 44.9838C681.192 44.9838 681.339 45.1806 681.634 45.4756C683.651 47.5411 686.651 48.5247 689.503 48.5247C695.453 48.5247 699.584 45.1806 699.584 40.607C699.584 29.3452 679.618 33.427 679.618 21.3292C679.618 15.5262 684.683 12.1329 689.995 12.1329C693.683 12.1329 698.011 14.1 700.273 17.1491C700.42 17.3458 700.47 17.5425 700.47 17.7392C700.47 18.2802 700.027 18.7228 699.486 18.7228C699.191 18.7228 698.945 18.6244 698.699 18.3293C698.699 18.3293 698.502 18.0835 698.158 17.69C696.044 15.5262 693.093 14.1 689.995 14.1C685.372 14.1 681.585 16.9524 681.585 21.3292C681.585 31.4599 701.551 27.5256 701.551 40.607Z" fill="white"/>
</svg>
