<svg width="100" height="101" viewBox="0 0 100 101" fill="none" xmlns="http://www.w3.org/2000/svg">
<path d="M94.5565 37.6147V100.608H3.67432V45.6695L6.69022 32.4572H93.3131L94.5565 37.6147Z" fill="#E6E6E6"/>
<path d="M100 60.1969L94.5533 51.7928L84.9048 36.9093L70.5878 60.8819L3.67106 61.7038L0 61.7482L3.67106 45.6696L6.68696 32.4572L10.3627 1.29284L89.2622 0.60791L93.3099 32.4572L94.5533 37.6148L100 60.1969Z" fill="#2F2E41"/>
<path d="M60.3227 51.7809H24.2188V18.2192L42.2707 3.69006L60.3227 18.2192V51.7809Z" fill="#E6E6E6"/>
<path d="M22.4284 66.1901H6.55518V100.608H22.4284V66.1901Z" fill="white"/>
<path d="M57.281 66.1901H28.4912V100.608H57.281V66.1901Z" fill="white"/>
<path d="M67.5562 68.9298H62.7319V100.608H67.5562V68.9298Z" fill="white"/>
<path d="M85.7682 44.0242H81.1768V54.1284H85.7682V44.0242Z" fill="#3F3D56"/>
<path d="M88.4898 61.7469H78.6743V83.5957H88.4898V61.7469Z" fill="#34A836"/>
<path d="M83.8679 61.7469H83.1909V83.5957H83.8679V61.7469Z" fill="#E6E6E6"/>
<path d="M57.2154 24.0757H47.3999V45.9245H57.2154V24.0757Z" fill="#34A836"/>
<path d="M52.5812 24.0757H51.9043V45.9245H52.5812V24.0757Z" fill="#E6E6E6"/>
<path d="M39.1612 24.0757H29.3457V45.9245H39.1612V24.0757Z" fill="#34A836"/>
<path d="M34.5392 24.0757H33.8623V45.9245H34.5392V24.0757Z" fill="#E6E6E6"/>
</svg>
